<svg xmlns="http://www.w3.org/2000/svg" width="400" height="304.31">
  <g fill-rule="evenodd">
    <path d="M254.34 53.26c-.5.28-1.53.75-2.29 1.05-.75.3-1.78.71-2.28.93-.5.22-1.4.56-1.98.77-.58.2-1.4.51-1.82.68l-1.53.62c-2.5.98-2.65 1.36-1.28 3.37.73 1.08 3.03 2.94 3.63 2.94.61 0 5.2 5.18 6.07 6.85 2.35 4.53 3.26 8.78 3.76 17.5.84 14.71 5.66 23.46 15.3 27.8 1.9.86 3.07 1.34 4.18 1.73.59.2 1.34.48 1.68.62 4.39 1.8 5.06.35 3.4-7.31-.6-2.82-.48-11.39.17-11.51.38-.07.75.38 1.37 1.67.46.97.91 1.84 1 1.92.08.09.35.57.6 1.07 2.92 5.96 11.64 14.5 20.16 19.74 2.67 1.65 7.84 4.15 8.55 4.15.27 0 .56.13.65.28.2.32 1.77.62 4.32.84 2.2.18 3.35-.29 4.46-1.8.7-.95.97-1.73 1.74-4.8.4-1.63.23-11.59-.26-14.6l-.52-3.23c-.25-1.58.43-2.46 1.49-1.9.55.28 3.31 2.43 3.86 2.99 2.76 2.83 8.75 6.56 12.17 7.57.76.23 1.69.53 2.07.68 3.57 1.4 8.01-.35 9.45-3.7 1.16-2.72 1.11-10.65-.07-11.3-.27-.16-.49-.67-.49-1.18 0-.57-.22-1.03-.62-1.27a7.52 7.52 0 0 1-1.58-2.06c-4.85-8.53-16-20.77-19.98-21.9-1.15-.34-1.31-.13-1.42 1.86-.17 3.24-1.38 3.2-10.62-.35-6.72-2.59-7.98-2.08-5.14 2.06 2.77 4.05 3.25 5.25 3.27 8.15.05 6.84-5.93 7.66-18.84 2.58-7.15-2.8-19.68-10.75-27.41-17.4-6.22-5.32-14.5-14.77-14.03-16 .24-.62-.21-.66-1.2-.11m80.15 16.21c-1.53.32-1.81.83-1.15 2.05.49.92 1.25 1.06.92.17-.52-1.37 1.17-1.71 9.28-1.88 3.35-.08 6.22-.26 6.38-.42.39-.39-13.54-.31-15.43.08m-135 7.66c-.38.4-1.06.9-1.53 1.14-10.21 5.1-19.27 14.33-25.2 25.7-1.2 2.32-1.16 2.6.32 2.36 1.59-.26 1.37.11-2.37 4.07a111.74 111.74 0 0 0-16.31 22.17c-1.84 3.2-2.15 3.62-2.87 3.9-.82.3-.77 5.15.08 6.53.66 1.1 2.9 1.4 4.78.65a69.25 69.25 0 0 0 3.82-1.6c.96-.45 2.54-1.16 3.5-1.59.96-.43 1.99-.91 2.28-1.07 2.46-1.29 2.67-.03 1.04 6.27-.96 3.73-1.72 8.42-1.72 10.6 0 2.62-.78 2.93-3.32 1.3l-1.62-1.05-1.14.6c-1.75.91-2.75-.3-2.75-3.38 0-.9-.47-1-2.77-.6-5.63.94-11.54-2.42-11.54-6.57 0-.39-.14-.8-.3-.9-.17-.1-.3-1.06-.3-2.13 0-1.07-.14-2.03-.31-2.13-.17-.1-.3-.6-.3-1.09 0-.97-.23-1-2.56-.25-.49.15-2.54.27-4.57.27-19.06 0-32.58 6.22-44.51 20.48-4.51 5.39-5.97 7.7-10.5 16.58-4.06 8-4.55 8.6-6.93 8.6-.98 0-1.43.71-1.07 1.66.3.79 1.21 1 2.96.7 3.67-.62 7.29-.6 8.35.06 1.34.85 1.38 2.13.07 2.71-.5.23-.91.62-.91.87 0 .28-.18.4-.44.3-.27-.1-.52.06-.63.42-.1.33-.32.6-.49.6-.16 0-.26.16-.22.37.23 1.13-2.95 5.4-4.01 5.4-.8 0-1.03.53-.34.76.49.15.54.34.33 1.16-.47 1.84-.68 2.5-.9 2.8-1.55 2.08-.15 6.34 1.76 5.37l1.44-.69c.5-.23.98-.49 1.06-.59.09-.09.8-.6 1.59-1.14 1.45-.99 7.4-6.88 8.37-8.27.29-.42.9-1.17 1.37-1.68.47-.5.85-1.08.85-1.29 0-.2.1-.38.24-.38.13 0 .46-.38.73-.84.28-.46.85-1.25 1.29-1.75a4 4 0 0 0 .78-1.14c0-1.33 5.16-6.32 6.54-6.32 1.52 0 3.2 2.6 3.2 4.94 0 .45.14.9.31 1 .17.1.3.86.3 1.67s.14 1.58.3 1.68c.18.1.31.92.31 1.83 0 .9.14 1.72.3 1.82.18.1.31.72.31 1.37 0 .65.14 1.27.3 1.37.17.1.31.58.31 1.07 0 .48.14.96.3 1.06.17.1.3.53.3.94 0 .4.13.98.28 1.27.15.3.44.94.64 1.45.2.5.5 1.15.65 1.44.15.29.27.73.27.99s.13.46.3.46c.17 0 .3.27.3.6 0 .34.1.62.23.62s.5.58.84 1.3c.71 1.5 4.46 5.37 5.78 5.97.5.22 1.16.53 1.45.68.72.37 5.63.34 5.86-.04.1-.17.45-.3.78-.3s.59-.14.59-.31c0-.17.2-.3.45-.3 1.27 0 8.07-8.22 8.07-9.76 0-.15.35-1.02.76-1.93.42-.92.77-1.94.77-2.28 0-.33.12-.68.27-.78.14-.09.34-.54.43-1 .1-.47.32-1.43.5-2.14a76.77 76.77 0 0 0 1.74-8.45c.09-.67.29-1.34.44-1.5.15-.16.27-.54.27-.84 0-.3.12-.8.27-1.08l.67-1.4c.68-1.43 1.98-2.18 2.96-1.7.97.47 3.7 3.32 3.7 3.86 0 .21.12.38.27.38.14 0 .58.65.98 1.45.4.8.8 1.51.9 1.6.08.08.76 1.38 1.5 2.89a89.2 89.2 0 0 0 2.97 5.42 25.3 25.3 0 0 1 1.6 2.92c0 .13.28.49.62.79.33.3.6.67.6.8 0 .44 2.1 3.06 4.1 5.14 7.7 8 13.54 8.36 18.39 1.16.52-.78.96-1.64.96-1.9 0-.27.13-.48.3-.48.17 0 .3-.27.3-.6 0-.32.14-.67.3-.77.18-.1.31-.52.31-.91s.14-.81.3-.92c.18-.1.31-.58.31-1.06 0-.49.14-.97.3-1.07.17-.1.31-.7.31-1.33 0-.62.13-1.26.28-1.42.15-.16.36-1.11.46-2.12.35-3.4.76-7.6 1.04-10.5.92-9.58 3.25-9.77 10.05-.82 7.65 10.08 14.55 14.29 24.16 14.73 4.08.18 4.75-1.59 1.34-3.52-3.43-1.93-5.84-5.97-6.74-11.3-.1-.6-.27-3.1-.4-5.59-.25-5.4-.41-5.68-3.42-5.68-.98 0-2.1-.12-2.48-.27a29.4 29.4 0 0 0-2-.66c-5.2-1.55-6.91-9.14-3.74-16.57a49.73 49.73 0 0 1 4.61-8.41c1.3-1.9 1.5-2.93.66-3.2-12.88-4.16-21.95-17.29-20.17-29.2.9-5.99 3.85-8.71 14.16-13.08.67-.28 1.83-.8 2.59-1.13.75-.34 1.64-.72 1.98-.84.69-.26 1.64-.65 3.2-1.3 5.47-2.34 5.62-2.5 4.3-4.27-3.51-4.68-7.1-10.84-8.55-14.68-.38-1-.8-2.1-.95-2.43-.14-.34-.45-1.22-.7-1.97-.52-1.63-.75-1.74-1.63-.8m183.78 31.85c-2.2 1.35-6.33 2.65-10.5 3.3-3.08.5-3.56.95-2.85 2.68.19.47.33 1.16.3 1.53-.02.37.1.75.27.85.16.1.3.65.3 1.22s.13 1.11.3 1.22c.17.1.3.52.3.94 0 2.83 7.62-1.67 10.88-6.42 2.41-3.53 2.98-6.53 1-5.32m-151.14 14.16c-3.36 2.04-6.48 3.28-11.11 4.4-5.16 1.26-13.57 1.13-19.49-.29-.75-.18-1.82-.41-2.36-.51-.55-.11-1.07-.31-1.16-.46-.46-.73-1.35-.24-1.35.75 0 3.27 6.19 9.15 10.35 9.83.25.04 1 .23 1.68.43.67.19 1.97.46 2.89.6.92.13 2.06.4 2.53.58a6 6 0 0 0 4.2-.14 5.83 5.83 0 0 1 1.98-.38c.68.09.86.02 4.12-1.54 4.38-2.1 9.61-8.8 9.78-12.51.08-1.66-.33-1.81-2.06-.76m134.09 13.07c0 .24-.27.59-.6.77-.52.27-.62.63-.62 2.33 0 2.6-.98 5.46-2.5 7.3-.64.78-1.12 1.57-1.06 1.75.17.53 2.5.57 4 .06.75-.26 1.57-.4 1.8-.3.25.09.53.02.64-.16.31-.5 1.73-.39 2.37.2.56.5.58.48.48-.7-.08-1.03-.01-1.2.51-1.18.4 0 .64-.2.68-.61l.26-2.08c.3-2.27-1.57-5.7-3.1-5.7-.24 0-.42-.1-.42-.23s-.42-.41-.92-.63c-.5-.23-.91-.6-.91-.84s-.14-.43-.3-.43c-.17 0-.31.2-.31.45m-271.1 10.73a47.4 47.4 0 0 0-3.79 3.41c-1.92 1.92-1.23 1.43 1.12-.8.38-.36 1.21-1.05 1.85-1.52 1.41-1.06 2.72-2.23 2.48-2.23-.1 0-.84.51-1.67 1.14m164.1 4.95c-.1.17-.43.3-.74.3-4.1 0-6.84 5.98-4 8.74 3.55 3.45 16.47 2.18 16.47-1.62 0-.2.18-.56.4-.78 1.37-1.36-1.71-5.43-4.95-6.56-1.3-.45-6.9-.51-7.17-.08m78.66 1.47a29.4 29.4 0 0 0-2.54 2.09c-3.61 3.25-6.52 3.64-10.37 1.4-4.57-2.68-6.22-2.72-9.11-.23l-.9.77.56.98c.96 1.69 3 4.23 3.8 4.74.43.27 1.05.74 1.37 1.03.33.3.77.54 1 .54.21 0 .39.13.39.3 0 .17.27.3.6.3.34 0 .62.14.62.31 0 .17.31.3.7.3.38 0 .84.15 1.02.33.4.4 5.83.22 7.41-.23 3.47-1 6.16-2.98 8.66-6.38a28.2 28.2 0 0 1 2.8-3.32l1.05-.92-1.58-1.28c-1.79-1.46-3.92-1.74-5.48-.73m-123.75 45.56c.86.42 2.28 1.01 3.17 1.32 1.39.5 1.54.62 1.13.97-.5.42-.45.43-3.22-.9-1.36-.65-3.36-2.15-2.87-2.15.13 0 .94.34 1.8.76M45.96 221.3c0 .94-3.85 4.16-5.22 4.37-1.74.27-.98 8.83 1.32 14.95.32.85.65 1.86.73 2.25.16.78 1.58 4.43 2.1 5.38 1.59 2.92 2.62 4.43 4.02 5.86l1.63 1.67 1.97-.13c3.08-.2 3.39-.74 1.48-2.62a7.11 7.11 0 0 1-1.92-2.83c-.22-.74-.53-1.7-.7-2.14-.47-1.32.08-8.88.7-9.54.16-.16.28-.6.28-.97s.14-.77.3-.87c.17-.1.3-.5.3-.87s.13-.81.29-.97c.25-.26.44-1.59.36-2.44-.02-.18-.7-.63-1.53-1-3.51-1.6-5.5-4.77-5.5-8.78 0-.89-.14-1.62-.3-1.62a.3.3 0 0 0-.31.3m242.77 6.1c-.34.14-1.16.27-1.83.28-4.82.1-14.6 6.7-19.43 13.11-2.54 3.37-4.47 6.58-4.47 7.45 0 .27-.2.56-.45.66a.8.8 0 0 0-.46.7c0 .27-.11.64-.25.8-.27.3-.72 1.8-1.31 4.3-.99 4.21 1.4 7.56 7.42 10.38 2.17 1.02 2.17 1.02 4.2-2.98 3.63-7.11 9.4-13.36 15.2-16.47.76-.4 1.45-.8 1.53-.88.16-.17 1.3-.7 2.66-1.25l1.37-.61c.29-.15.8-.27 1.12-.27.33 0 .67-.12.76-.27.09-.14.95-.36 1.92-.47.97-.12 2.34-.45 3.06-.74l1.3-.53-.9-.67a24.2 24.2 0 0 1-3.02-3.49 86.67 86.67 0 0 0-4.59-5.51c-1.36-1.49-2.44-2.92-2.4-3.19.1-.57-.57-.73-1.43-.36m63.77.02-3.04.92c-16.24 4.8-27.99 21.64-19.91 28.55 3.5 2.99 4 2.97 6.2-.26.64-.92 1.92-2.5 2.85-3.5.94-1 1.65-2 1.57-2.2-.07-.22.04-.4.24-.4.2 0 1.93-1.22 3.84-2.71a40.45 40.45 0 0 1 9.47-5.57c.42-.17 1-.42 1.29-.57a3.3 3.3 0 0 1 1.27-.27c.42 0 .82-.12.91-.26.15-.24.86-.35 5.55-.86l1.57-.17-1.43-2.47c-2.6-4.54-4.68-9.2-4.43-9.97.2-.63-4.23-.83-5.95-.26M31.98 238.79c-.65 1.67.13 5.64 1.78 9.07.99 2.05 3.18 4.79 3.54 4.43.2-.2-.04-.85-1.22-3.33a84.98 84.98 0 0 1-1.83-5.33c-1.96-6.2-1.84-5.93-2.27-4.84m328.14 11.13c-.25.17-.76.3-1.14.3-.38 0-.93.13-1.22.27a541 541 0 0 1-2.94 1.45c-5.62 2.75-12.37 9.29-10.38 10.05 1.65.63 9.88-2 13.15-4.2a5.9 5.9 0 0 1 1.6-.87c.18 0 .32-.1.32-.23s.45-.5.99-.82c2.71-1.6 5.25-4.89 4.48-5.8-.43-.52-4.11-.63-4.86-.15m-59.66.83a4 4 0 0 0-1.66.41c-.16.16-.58.29-.93.29-.35 0-.77.11-.93.25-.16.14-.77.44-1.35.67-.59.22-1.94.93-3 1.57a26.2 26.2 0 0 1-2.05 1.16c-1.03 0-7.98 6.34-9.51 8.67-2.63 4.02-1.49 4.63 5.27 2.81 5.33-1.43 14.01-7.69 16.95-12.21 2-3.1 1.32-4-2.8-3.62m-181.73 20.4c-4.5 1.6-4.38 2.37.99 6.21a83.56 83.56 0 0 1 3.65 2.71c.88.8 2.99 1.82 3.76 1.82 1.3 0 .87-1.13-1.35-3.53a23.4 23.4 0 0 1-2.41-2.94l-1.28-2.74c-1.05-2.26-1.15-2.3-3.36-1.53m-12.78 5.35c0 .49 3.44 3.86 3.93 3.86.56 0 .38-.28-1.26-2.02-1.8-1.9-2.67-2.5-2.67-1.84" fill="#f54958"/>
    <path d="M361.64 93.07c0 .68 3.62 7.9 4.43 8.85 1 1.18 2.4 1.7 3.53 1.3a8.37 8.37 0 0 1 2.27-.33c.72 0 1.39-.13 1.5-.3.1-.17.71-.3 1.36-.3.65 0 1.27-.14 1.37-.31.1-.17.57-.3 1.03-.3.46 0 .96-.12 1.12-.25a7.9 7.9 0 0 1 1.5-.65c1.27-.42 2.9-1.43 2.9-1.79 0-.11-1-.24-2.2-.29a30.7 30.7 0 0 1-5.19-.58c-.62-.09-1.21-.29-1.3-.44-.1-.15-.46-.27-.8-.27-1.57 0-7.65-2.44-10.37-4.15-1.02-.65-1.15-.67-1.15-.19m-141.48 14.7c.6.94-.6 1.85-4.94 3.74-8.4 3.67-16.07 5.3-17.88 3.8-.27-.22-.38-.21-.38.03 0 .18.13.34.3.34.17 0 .27.15.23.33-.08.36 2.86 1.59 5.44 2.27 3.5.93 10.42.85 16.1-.19 1-.18 2.1-.36 2.43-.4.82-.1 2.3-.48 3.05-.78l1.45-.58c1.92-.78 1.41-1.94-2.74-6.26-2.64-2.74-3.94-3.73-3.06-2.3m32.35 7.3c-.1.17-.43.3-.72.3-.3 0-.83.28-1.19.61-.36.34-.76.62-.9.62-.6.04-5.67 3.88-6.02 4.56a13.75 13.75 0 0 0-1.06 5.16c0 .82-.14 1.58-.3 1.69-.17.1-.31.54-.31.98 0 1.24-.9 3.9-2.46 7.23a48.04 48.04 0 0 1-5.88 8.6c-1.7 1.85-8.32 7.39-8.85 7.39-.53 0-8.38 6.34-8.38 6.77 0 .32 2.92.13 5.48-.35l3.35-.62c5.24-.99 7.3-1 7.3-.06 0 .24-1.56 3.67-2.13 4.68-.17.29-.3.73-.3.99 0 .25-.14.46-.3.46-.17 0-.31.27-.31.61 0 .6-.11.89-.87 2.35a3.7 3.7 0 0 0-.35 1.43c0 .41-.14.83-.3.94-.17.1-.3.65-.3 1.21s-.14 1.12-.31 1.22c-.6.38-.38 8.2.25 8.78.95.86 2.29.38 4.26-1.54.23-.22.91-.77 1.53-1.23.6-.46 1.18-.9 1.26-1 .09-.1.64-.5 1.22-.9.59-.4 1.14-.82 1.22-.92.35-.44 3.94-2.72 5.25-3.34 1.73-.81 2.18-.6 1.92.87l-.53 3.09c-1.59 9.07 1.97 21.61 6.13 21.61.27 0 .65.15.83.33.34.34 3.37.24 5.12-.17 2.04-.48 5.2-2.09 9.07-4.6 4.13-2.7 5-2.62 6.15.64.87 2.47 1.2 3.2 1.44 3.2.13 0 .23.14.23.32 0 1.13 4.23 5.84 5.95 6.63.5.23 1.14.54 1.43.69 1.04.52 1.78.25 3.3-1.26.86-.83 1.74-1.52 1.96-1.52.22 0 .47-.17.54-.38.42-1.14 2.3 1.42 2.33 3.18.01.62.16 1.2.32 1.31.17.1.3.44.3.75 0 .66 2.43 3.43 4 4.57 2.56 1.85 7.27 6.24 7.27 6.77 0 .35 1.72 1.15 2.45 1.15.72 0 5.03-2.15 5.96-2.97.33-.3 1.2-1 1.95-1.59.75-.58 3.07-2.81 5.15-4.96 5.81-5.98 5.57-5.97 11.77-.28 3.83 3.5 6.44 5.54 7.1 5.54.19 0 .6.17.92.37 1.4.88 3.97-1.58 6.23-5.96 1.74-3.4 1.43-4.11-.83-1.94-3.93 3.79-6.95 2.24-7.03-3.6-.03-2.88.32-3.78 1.47-3.78.26 0 .48-.1.48-.23s.38-.4.84-.61c.46-.2 1.24-.73 1.75-1.16l.9-.78-1.51.19-3.96.46c-1.34.14-3.8.43-5.48.62-1.67.2-4.2.41-5.63.47-1.42.06-4.4.26-6.62.44-2.94.24-4.85.24-7 0a44.4 44.4 0 0 0-4.02-.32c-1.23.03-5.44-.86-7.17-1.52-1.31-.5-3.66-1.69-3.75-1.9-.06-.13-.27-.23-.48-.23-1.2 0-5.97-6.09-5.97-7.6 0-.32-.14-.67-.3-.77-.17-.1-.3-.57-.3-1.02 0-.46-.13-.97-.28-1.13-.63-.65-.97-9.31-.5-12.31.25-1.5.67-2.19 1.01-1.63.12.19.24-1.12.28-2.9.11-6.83 2.19-11.6 7.05-16.25 4.28-4.08 7.26-5.29 17.24-6.95 2.62-.44 5.18-.8 17.35-2.43 1.18-.16 2.96-.36 3.96-.45 1-.09 2.24-.29 2.74-.44 1.2-.36 8.72-.31 9.2.06.19.16.74.23 1.2.16l.86-.13-.94-.05c-1.74-.08-2.82-5.28-1.72-8.33.53-1.5 2.28-4.17 2.9-4.45.36-.16.26-1.16-.16-1.5-.21-.18-1.48-.4-2.82-.48-3.15-.2-4.98-.5-5.19-.84-.1-.15-.44-.27-.76-.27-.33 0-.84-.12-1.13-.27-3.68-1.88-4-1.86-4.62.27-.4 1.43-.63 2.07-1.17 3.35l-.72 1.75c-.22.54-.5.99-.63.99s-.23.18-.23.4c0 1.14-5.25 5.57-7.46 6.31a7.2 7.2 0 0 0-1.51.66 2.3 2.3 0 0 1-1.12.24c-.46 0-.92.13-1.03.3-.1.18-1.67.3-3.65.3s-3.55-.12-3.65-.3c-.1-.17-.6-.3-1.09-.3-.5 0-1.14-.13-1.43-.28a37.8 37.8 0 0 0-1.74-.8 53.63 53.63 0 0 1-10.5-6.05l-2.29-1.71-2.28.17c-5.14.39-11.67.47-11.98.16-.18-.18-.77-.32-1.3-.32-.55 0-1.08-.14-1.18-.3-.1-.17-.59-.31-1.07-.31-.48 0-.96-.14-1.06-.3-.1-.17-.53-.3-.93-.3-.41 0-.75-.14-.75-.31 0-.17-.27-.3-.6-.3a4.7 4.7 0 0 1-1.68-.62c-.6-.33-1.29-.6-1.53-.6s-.45-.14-.45-.3c0-.18-.26-.31-.58-.31-.32 0-.63-.1-.69-.23a6.83 6.83 0 0 0-1.62-.99c-3.15-1.56-7.41-4.77-11.15-8.4-2.3-2.23-2.8-2.54-3.16-1.95m106.68 1.44c-.95 1.88-2.13 3.45-4.33 5.74-1.97 2.05-1.96 2.16.4 2.86.74.23 1.98.74 2.73 1.13l1.37.7.18-1.29.69-4.64c.27-1.85.55-3.76.61-4.27.26-2.12-.64-2.25-1.65-.23M52.59 129c.54.06 1.43.06 1.98 0 .54-.07.1-.13-1-.13s-1.53.06-.98.13m-2.36 3.28c-5.22 1.23-10.62 4.4-12.82 7.5a18.3 18.3 0 0 1-1.22 1.58c-.29.31-.84 1.2-1.23 1.98s-.82 1.47-.94 1.52c-.13.06-.23.34-.23.62 0 .3-.12.66-.27.82-1.34 1.44-.44 4.4 1.5 4.88 2.03.49 1 2.18-1.37 2.24-.56.01-.55.05.1.5.8.56.7 1.65-.24 2.71-3.1 3.54-4.01 6.85-1.87 6.85.66 0 1.29-.14 1.39-.3.1-.17.51-.3.91-.3s.81-.14.92-.31c.1-.17.51-.3.9-.3.4 0 .82-.14.92-.31.1-.17.46-.3.79-.3s.83-.13 1.12-.29c.29-.15 1-.5 1.6-.76 1.05-.48 2.44-1.3 4.13-2.44 1.44-.98 6.04-5.17 11.08-10.12 5.3-5.18 5.91-5.68 9.14-7.25 1.25-.62 2.52-1.24 2.8-1.4.3-.15.87-.27 1.29-.27a4.5 4.5 0 0 0 1.55-.37c.61-.28.92-.28 1.38 0 .58.37 2.1.51 2.1.2 0-.51-1.06-1.66-1.55-1.66-.31 0-.57-.1-.57-.24 0-.32-5.85-3.25-7.76-3.89-4.01-1.34-10-1.73-13.55-.9m226.33 2.3c.1.16.58.3 1.07.3.48 0 .96.13 1.06.3.1.17.4.3.65.3.68 0 3.93 2.3 4.62 3.27 1.06 1.5 1.89 3.13 1.89 3.73 0 .32.11.65.26.74 1.04.65.46 7.7-.85 10.38-1.82 3.7-7.59 7.8-10.28 7.32-2.33-.42-2.95-.3-5.08.98-7.53 4.55-17.84 2.28-17.84-3.92 0-2.94 2.33-5.3 6.86-6.92l2.42-.87.24-1.64c.13-.9.31-2.27.4-3.02.1-.75.3-1.5.45-1.66.16-.16.28-.51.28-.78 0-2.68 4.4-6.95 8.68-8.44 1.19-.41 4.93-.47 5.17-.08m92.08 14c-1.91 1.22-5.8 1.4-9.37.42-.68-.18-.67-.13.35 1.75 2.32 4.3 3.08 7.82 3.08 14.35 0 3.19.12 5.1.31 5.1.2 0 .18.1-.01.23-.18.12-.51 1.05-.74 2.05-.23 1-.53 2.07-.67 2.36-.3.6-.46 1.98-.8 6.93a22.44 22.44 0 0 1-.46 3.87c-.25.4.4 1.86 1.14 2.6.75.75 2.3 4.05 2.3 4.88 0 .43.14.87.3.97.18.1.31.47.31.81 0 .6 1.04 2.33 1.66 2.76.62.42 1.43-.69 2.61-3.57.9-2.17 1.27-6.05 1.47-15.22l.2-8.82.68-.1c.7-.1 6.92 3.04 7.7 3.89.77.84 2.22 1.56 2.53 1.24.5-.5.36-4.2-.18-4.83-.6-.69-1.33-2.35-3.58-8.12-4.14-10.58-6.88-14.79-8.83-13.55M184.8 182.99c-.45.74-.61 1.78-.75 4.8-.76 16.54-3.53 24.33-9.82 27.66-2.04 1.08-6.04 1.4-7.93.65-6.75-2.72-10.56-7.32-17.6-21.27-4.08-8.08-6.32-10.4-8.15-8.41-.85.91-1.2 2.18-2.36 8.4-.2 1.1-.57 2.74-.81 3.66l-.69 2.59c-5.75 21.86-22.02 25.3-29.54 6.24-1.5-3.8-2.1-6.22-3.18-12.64-1.86-11.07-3.13-11.38-9.6-2.28-2.07 2.92-3.4 4.67-5.78 7.62-5.73 7.1-12.85 11.58-14.91 9.37-1.02-1.1-.52-5.39.9-7.93 1.41-2.49-2.28-.82-5.05 2.28-5.06 5.68-9.52 11.68-9.56 12.86-.04 1 12.18 1.12 13.23.12.15-.15.73-.27 1.27-.27s1.07-.14 1.18-.3c.1-.17.58-.31 1.06-.31.48 0 .96-.14 1.07-.3.5-.81 2.58-.34 2.58.58 0 .49-.1.93-.22.99-.13.05-.66.92-1.18 1.93a58.5 58.5 0 0 1-2.55 4.71 5 5 0 0 0-.5.92l-1.02 2.28c-.37.84-.8 1.76-.95 2.05-.15.3-.27.8-.27 1.14 0 .34-.12.62-.27.62-.37 0-.67 1.77-.83 4.87-.24 4.68 1.6 6.39 6.87 6.39 1.69 0 3.1-.14 3.2-.3.11-.17.66-.31 1.23-.31s1.11-.14 1.21-.3c.1-.17.52-.3.92-.3s.8-.15.91-.31c.1-.17.52-.3.93-.3.41 0 .74-.14.74-.31 0-.17.27-.3.58-.3.32 0 1.11-.27 1.75-.58 5.6-2.75 7.62-3.7 7.95-3.69.2 0 .38-.14.38-.3 0-.17.26-.3.59-.3.32 0 .66-.13.76-.28.25-.4 1.8-.62 2.2-.3.4.34.26 1.17-.5 2.86-2.18 4.8-2.51 5.99-2.54 8.97-.04 5.41 3.08 7.33 10.14 6.24a4.6 4.6 0 0 0 1.66-.48c.16-.15.6-.27.97-.27s.77-.14.87-.3c.1-.18.44-.31.75-.31.56 0 1.07-.23 4.89-2.14 4.69-2.35 7.37-4 11.52-7.07 2.48-1.83 2.86-1.83 4.03.07 2.33 3.8 6.04 4.14 12.5 1.16 1.49-.68 5.28-3.04 5.74-3.57.08-.1.37-.31.64-.48.27-.17 1.22-.81 2.12-1.44 2.04-1.42 2.13-1.3 2.07 2.81-.05 3.08.1 4.06 1.16 7.52.5 1.64 2.75 4.35 3.61 4.35.24 0 .44.14.44.3 0 .18.32.31.7.31.39 0 .85.15 1.03.33.51.51 6.9-.07 7.27-.66.1-.15.44-.28.76-.28s.84-.12 1.13-.27c.29-.15 1.85-.92 3.47-1.7s3.11-1.6 3.31-1.85c.2-.24.5-.44.66-.44.16 0 1.14-.58 2.17-1.3 6.8-4.68 7.24-5.52 7.36-13.78.03-2.35.2-4.54.37-4.87.17-.33.24-.78.16-1.01a4 4 0 0 1 .21-1.68l.67-2.32c1.61-5.64 5.58-8.22 8.37-5.43l1.11 1.12.08 6.65c.07 6.93.3 10.1.77 10.58.15.16.28.63.28 1.05 0 .96.78 3.44 1.56 4.98.14.29.27.73.27.99s.13.46.3.46c.17 0 .3.27.3.6 0 .34.11.61.24.61s.45.52.73 1.15c.9 2.07 6.2 8.6 6.98 8.6.11 0 .29-1.68.4-3.73.37-7.18.81-9.96 1.88-11.76.52-.89 1.65-1.33 1.65-.65 0 .17.14.3.32.3.17 0 1.57 1.07 3.12 2.37 4.1 3.46 7.24 5.85 7.7 5.85.1 0 .74.39 1.44.86a48.4 48.4 0 0 0 6.3 3.18c.4.16.99.42 1.28.57.3.14.8.27 1.12.27.33 0 .68.13.79.3.1.17.63.3 1.17.3s1.12.13 1.28.28c.63.59 6.04.88 8.35.44 1.64-.3 1.93-1.11.94-2.51a3.57 3.57 0 0 1-.63-1.22c0-.18-.11-.33-.25-.33s-.53-.52-.87-1.15a144 144 0 0 0-1.27-2.29c-.36-.63-.66-1.35-.66-1.6s-.13-.44-.3-.44c-.17 0-.3-.36-.3-.78a3.7 3.7 0 0 0-.34-1.42c-.5-.93.23-2.87 1.41-3.77 1.03-.78 5.66-1.1 6.08-.43.1.17.72.3 1.37.3.65 0 1.26.14 1.37.31.6.96 2.28-.01 3.94-2.28 1.27-1.73 8.35-8.68 8.84-8.68.22 0 .46-.1.51-.25.43-1.07 7.3-4.65 10.6-5.53 3.2-.85 3.21-.8-.36-2.56a36.1 36.1 0 0 0-13.43-3.66 16.16 16.16 0 0 1-2.62-.31c-.13-.08-1.11-.17-2.19-.2-2-.05-2.1-.02-5.9 1.97-.83.43-2.26 1.01-3.19 1.28-.92.28-1.96.61-2.29.75-2.4 1-11.37 1.42-11.9.56-.09-.15-.36-.26-.6-.26-3.65 0-13-8.25-15.95-14.1-.51-1-1.33-1.25-3.45-1.05-8.17.8-17.13-4.46-25.69-15.06-4.85-6.01-6.7-7.19-7.99-5.07m-119.66 19.9a6.93 6.93 0 0 0-1.19 1.37c.09 0 .76-.61 1.5-1.37a6.9 6.9 0 0 0 1.2-1.37c-.1 0-.77.62-1.5 1.37m289.19 13.6c0 1.32 1.36 2.69 2.68 2.69h.8l-.75-.52a5.81 5.81 0 0 1-2.1-2.25l-.63-1.04v1.12" fill="#04d3bd"/>
    <path d="M332.12 6.09c0 .17-.53.3-1.18.3-1.15 0-2.48.78-2.48 1.46 0 .18-.27.42-.6.52-.34.1-.62.46-.62.78s-.13.6-.3.6c-.18 0-.3 1-.3 2.43 0 1.42.12 2.43.3 2.43.17 0 .3.41.3.92s.14.9.3.9c.18 0 .31.21.31.46s.22.46.48.46.38.15.27.33c-.25.4.4 1.75 1.15 2.45.3.27.54.71.54.99 0 .27.14.5.3.5.17 0 .3.24.3.53 0 .3.28.74.62.99.37.27.54.64.43.98-.1.3-.02.54.15.54s.33.27.33.6c0 .34.14.62.3.62.17 0 .3.27.3.6 0 .34.15.61.31.61.17 0 .3.2.3.46 0 .25.2.46.44.46.33 0 .4.26.27 1.06-.11.7-.05 1.07.17 1.07.19 0 .34.2.34.45 0 .26.19.46.4.46.28 0 .37.29.28.91-.1.64 0 .92.29.92.3 0 .39.32.3 1.21-.07.76.02 1.22.22 1.22s.34.57.34 1.37c0 .75.14 1.37.3 1.37.17 0 .31.75.31 1.66 0 .9-.14 1.74-.3 1.84-.17.1-.3.58-.3 1.06 0 1.67-.22 1.83-2.32 1.83-1.1 0-1.95-.13-1.95-.3 0-.17-.41-.3-.91-.3s-.92-.14-.92-.3c0-.18-.47-.31-1.04-.31-.58 0-1.14-.14-1.24-.3-.1-.18-1.58-.31-3.37-.31-1.91 0-3.17-.12-3.17-.3 0-.2-1.63-.31-4.27-.31-2.63 0-4.26-.12-4.26-.3a.32.32 0 0 0-.32-.31c-.43 0-1.2-.78-1.2-1.2 0-.6-2.75-3.12-3.21-2.95-.26.1-.44 0-.44-.27 0-.25-.28-.45-.61-.45-.34 0-.61-.14-.61-.3 0-.2-1.78-.3-4.72-.3s-4.72.1-4.72.3c0 .16-.55.3-1.22.3s-1.21.14-1.21.3c0 .17-.35.3-.76.3-.46 0-.77.18-.77.44 0 .28-.2.37-.64.26-.37-.1-.74 0-.9.25-.15.25-.63.38-1.18.33-.52-.06-.93.04-.93.23s-.64.32-1.52.32h-1.52v-1.21c0-.67-.14-1.22-.3-1.22-.17 0-.31-.55-.31-1.22 0-.67-.14-1.22-.3-1.22-.17 0-.31-.34-.31-.76 0-.43-.18-.76-.4-.76-.28 0-.37-.29-.27-.91.08-.55 0-.91-.2-.91s-.35-.28-.35-.61c0-.34-.13-.61-.3-.61-.17 0-.3-.23-.3-.5 0-.45-1.07-1.62-1.5-1.64-.1 0-.6-.62-1.1-1.37-.5-.75-1.15-1.36-1.44-1.36-.3 0-.53-.14-.53-.3 0-.18-1.02-.31-2.44-.31s-2.43.13-2.43.3c0 .17-.28.3-.61.3-.34 0-.61.14-.61.31 0 .17-.22.3-.49.3s-.87.42-1.34.92c-.47.5-.98.91-1.14.91-.41 0-1.33 1.08-1.1 1.3.1.11-.38.74-1.07 1.4-.69.67-1.25 1.43-1.25 1.7s-.14.47-.3.47c-.39 0-5.63 5.21-6.07 6.04-.2.36-.72.74-1.18.86-.83.2-1.89 1.16-1.89 1.7 0 .17-.2.22-.43.13-.24-.09-.67.16-.99.58-.3.4-.76.74-1.02.74s-.67.27-.9.6c-.25.34-.7.62-.99.62-.3 0-.54.13-.54.3 0 .17-.25.3-.54.3-.3 0-.74.28-.98.61-.28.38-.65.55-.98.44-.36-.11-.55-.01-.55.3 0 .36-.2.42-.9.28-.59-.11-.92-.05-.92.16 0 .2-.28.35-.61.35-.34 0-.6.13-.6.3 0 .17-.28.3-.6.3-.33 0-.68.14-.78.31-.1.17-.59.3-1.08.3-.5 0-.9.14-.9.3 0 .18-.48.31-1.06.31-.75 0-1.07.14-1.07.46a.46.46 0 0 1-.46.46c-.25 0-.45-.15-.45-.34 0-.18-.41-.72-.92-1.19s-.9-1.13-.9-1.47c0-.34-.15-.7-.31-.8-.18-.12-.3-1.84-.3-4.14 0-2.42.11-3.94.3-3.94.16 0 .3-.61.3-1.37 0-.75.14-1.37.3-1.37.17 0 .31-.54.31-1.21 0-.69.15-1.22.34-1.22.2 0 .29-.46.22-1.22-.09-.9 0-1.22.3-1.22s.38-.24.28-.78c-.1-.5 0-.85.27-.95a.69.69 0 0 0 .42-.58c0-.24.13-.43.3-.43.17 0 .3-.4.3-.9 0-.51.16-.92.34-.92.2 0 .29-.37.21-.92-.1-.65-.01-.9.3-.9.34 0 .4-.24.26-.93-.13-.67-.05-.98.27-1.1.76-.3.62-4.98-.2-6.57-.81-1.61-1.38-2.17-1.95-1.95a.48.48 0 0 1-.64-.27c-.1-.25-.36-.45-.6-.45-.23 0-.42-.14-.42-.3 0-.2-1.32-.31-3.35-.31s-3.35.12-3.35.3c0 .17-.34.3-.76.3s-.76.14-.76.31c0 .17-.41.3-.91.3s-.92.14-.92.31c0 .17-.27.3-.6.3-.34 0-.61.14-.61.31 0 .17-.28.3-.61.3-.34 0-.61.14-.61.3 0 .18-.27.31-.59.31-.32 0-.67.28-.78.61-.12.38-.46.61-.91.61-.46 0-.8.23-.92.61a.9.9 0 0 1-.82.6c-.6 0-1.76 1.04-1.76 1.58 0 .14-.2.25-.46.25-.95 0-8.15 7.05-7.89 7.73.1.27-.1.6-.53.82-.91.5-1.47 1.06-1.47 1.5 0 .2-.42.75-.92 1.22s-.91 1.02-.91 1.23c0 .2-.25.6-.56.86-.3.27-.81 1.08-1.12 1.79-.31.71-.68 1.3-.82 1.3s-.24.27-.24.6c0 .34-.14.61-.3.61-.17 0-.3.27-.3.61 0 .33-.15.6-.31.6-.17 0-.3.35-.3.77 0 .42-.15.76-.31.76-.17 0-.3.2-.3.46s-.14.45-.31.45c-.17 0-.3.28-.3.61 0 .34-.14.61-.31.61-.17 0-.3.27-.3.61 0 .33-.16.6-.34.6-.2 0-.29.37-.2.92.08.63 0 .92-.28.92-.24 0-.4.35-.4.9 0 .51-.14.92-.3.92-.17 0-.31.41-.31.91s-.14.92-.3.92c-.17 0-.31.34-.31.76s-.15.76-.33.76c-.2 0-.3.6-.24 1.54.05 1.04-.05 1.63-.33 1.8-.3.19-.36.84-.25 2.59.1 1.72.04 2.44-.26 2.75-.27.27-.42 1.16-.42 2.57 0 2.15-1.2 4.28-2.42 4.28-.18 0-.32.18-.32.4 0 .27-.29.36-.9.27-.56-.08-.92 0-.92.2s-.28.34-.61.34c-.34 0-.61.14-.61.3 0 .17-.27.31-.6.31-.34 0-.62.14-.62.3 0 .17-.2.31-.46.31-.25 0-.45.14-.45.3 0 .17-.28.31-.61.31-.34 0-.6.14-.6.3 0 .17-.28.3-.62.3-.33 0-.6.15-.6.31 0 .17-.35.3-.77.3-.42 0-.76.14-.76.31 0 .17-.27.3-.6.3-.34 0-.62.13-.62.27 0 .15-.42.35-.93.46-.51.1-.85.31-.76.47.1.16.04.37-.13.48-.17.1-.3.02-.3-.18 0-.24-.2-.2-.56.13-.31.28-.7.5-.85.5-.16 0-.49.28-.73.62-.24.33-.63.6-.86.6-.23 0-.8.42-1.27.92s-1.01.91-1.21.91c-.2 0-.89.55-1.53 1.22a4.96 4.96 0 0 1-1.5 1.22c-.59 0-4.8 4.43-5 5.27-.12.45-.33.81-.47.81-.45 0-2.16 1.74-2.16 2.2 0 .22-.28.6-.61.85-.34.24-.6.65-.6.91s-.28.67-.62.92c-.33.24-.6.68-.6.98 0 .3-.14.54-.31.54-.17 0-.3.27-.3.6 0 .34-.14.62-.31.62-.17 0-.3.27-.3.6 0 .34-.16.61-.34.61-.2 0-.27.27-.19.61.11.41.01.61-.3.61s-.41.2-.3.61c.09.35 0 .6-.2.61-.37 0-1.1 1.36-1.1 2.04 0 .21-.15.4-.31.4-.17 0-.3.34-.3.75 0 .42-.15.77-.31.77-.17 0-.3.4-.3.9s-.14.92-.31.92c-.17 0-.3.55-.3 1.22 0 .67-.14 1.22-.31 1.22-.17 0-.3.4-.3.91 0 .5-.14.91-.3.91-.18 0-.31.21-.31.46 0 .7-.9 2.18-1.88 3.11-.28.26-.45.63-.38.82.08.19-.16.55-.52.8-1.13.77-4.23 3.9-4.23 4.26 0 .19-.54.87-1.21 1.51-.67.65-1.22 1.36-1.22 1.59 0 .22-.27.6-.6.85-.34.24-.62.63-.62.87 0 .23-.25.65-.55.92-.72.65-1.72 2.79-1.62 3.46.05.32-.12.53-.41.53-.28 0-.4.15-.3.32.1.18-.09.57-.44.87-.35.3-.64.78-.64 1.05 0 .42-.41.5-2.58.55-1.43.02-2.76.06-2.97.07-.21.02-.35-.14-.3-.35.1-.55-15.04-.55-15.23 0-.08.27-.76.35-2.31.28-1.64-.08-2.17 0-2.1.28.05.27-.37.36-1.52.3-.98-.04-1.6.06-1.6.26 0 .18-.55.33-1.22.33-.67 0-1.22.14-1.22.3 0 .17-.54.3-1.21.3-.67 0-1.22.14-1.22.31 0 .17-.41.3-.91.3s-.92.14-.92.31c0 .17-.34.3-.76.3s-.76.14-.76.31c0 .17-.41.3-.91.3s-.92.14-.92.3c0 .18-.27.31-.6.31-.34 0-.61.14-.61.3 0 .18-.28.31-.61.31-.34 0-.61.14-.61.3 0 .17-.2.31-.46.31s-.46.14-.46.3c0 .17-.27.31-.6.31-.34 0-.61.14-.61.3 0 .17-.28.3-.63.3-1.06 0-3.39 1.23-3.56 1.88-.1.37-.32.53-.6.43-.41-.16-2.24.89-2.47 1.42-.05.13-.3.24-.54.24-.5 0-1.94 1.33-1.94 1.8 0 .17-.21.23-.47.13-.27-.1-.7.1-1.02.47-.31.35-.76.64-1 .64-.23 0-.62.27-.86.6-.7.99-2.13.5-2.13-.73 0-.26-.14-.48-.3-.48-.18 0-.31-.25-.31-.56 0-.78-.9-2.5-1.4-2.69-.24-.09-.43-.42-.43-.74s-.14-.57-.3-.57c-.17 0-.3-.34-.3-.74 0-.49-.23-.82-.64-.95-.39-.12-.56-.36-.46-.64.18-.48-1.07-1.94-1.67-1.94-.19 0-.27-.2-.17-.46.2-.5-2.84-3.8-3.48-3.8-.2 0-.73-.4-1.2-.91-.47-.5-1.04-.91-1.27-.91-.23 0-.62-.28-.86-.61-.27-.38-.64-.55-.98-.44-.37.12-.54.01-.54-.34 0-.36-.18-.47-.6-.35-.42.1-.62 0-.62-.3s-.19-.38-.6-.25c-.4.13-.62.06-.62-.2 0-.56-1.52-1.19-2.36-.97-.4.1-.68.04-.68-.16 0-.19-.34-.34-.76-.34s-.76-.14-.76-.3c0-.17-.69-.31-1.52-.31s-1.53-.14-1.53-.3c0-.2-2.28-.31-6.24-.31-3.95 0-6.24.11-6.24.3 0 .17-.48.3-1.06.3s-1.07.13-1.07.27c0 .15-.96.36-2.13.48-1.17.11-2.13.34-2.13.5 0 .15-.33.28-.74.28s-.83.14-.93.3c-.1.17-.46.31-.78.31s-.6.14-.6.3c0 .17-.27.3-.6.3-.34 0-.61.15-.61.31 0 .17-.28.3-.61.3-.34 0-.6.15-.6.31 0 .17-.28.3-.61.3-.4 0-.67.28-.8.78-.15.59-.33.72-.78.58-.4-.12-.78.03-1.15.45-.3.35-.64.63-.75.63a9.87 9.87 0 0 0-2.31 2.3c0 .39-1.4 1.34-1.98 1.35-.5.01-.53.06-.15.3.27.18.3.3.1.3-.2.01-.45.29-.56.62-.1.34-.32.61-.48.61-.6 0-2.43 2.04-2.25 2.5.12.33-.06.53-.63.67-.67.17-.78.33-.63.92.15.58.04.75-.58.9-.49.13-.76.41-.76.8 0 .33-.13.6-.3.6-.17 0-.3.28-.3.61 0 .34-.14.61-.31.61-.17 0-.3.28-.3.61 0 .34-.16.6-.35.6-.22 0-.27.34-.16.92.15.71.08.92-.3.92s-.45.2-.3.9c.1.52.05.92-.12.92-.16 0-.3.41-.3.92 0 .5-.13.9-.3.9-.17 0-.3.48-.3 1.06s-.14 1.13-.31 1.23c-.18.11-.3 1.73-.3 3.83 0 2.22-.12 3.63-.3 3.63s-.31.45-.31 1c0 .67-.21 1.14-.65 1.44-.35.25-.82.62-1.04.83-.22.21-.62.38-.88.38s-.48.14-.48.3c0 .18-.27.31-.6.31-.34 0-.62.14-.62.3 0 .17-.21.31-.47.31-.55 0-.97.4-1.74 1.6-.3.46-.7.84-.92.84-1.33 0-2.32 5.63-1.3 7.43.58 1.03 4.71 5.05 5.2 5.05.24 0 .45.13.45.3 0 .17.25.3.54.3.3 0 .74.28.98.62.26.35.8.6 1.29.6.46 0 .85.14.85.3 0 .18.27.31.6.31.34 0 .61.16.61.35 0 .21.33.27.92.15.68-.13.91-.07.91.27 0 .28.3.45.76.45.42 0 .76.15.76.33 0 .2.6.3 1.55.24 1-.05 1.62.06 1.78.3.16.27.93.37 2.47.32 1.49-.05 2.27.05 2.35.28.17.5 5 .48 5.5-.01.24-.25 1.18-.34 2.8-.28 1.95.07 2.43 0 2.43-.35 0-.34.33-.4 1.52-.29 1.01.1 1.52.03 1.52-.2 0-.19.41-.34.91-.34s.92-.14.92-.3c0-.17.4-.3.91-.3.5 0 .91-.15.91-.31 0-.17.28-.3.61-.3.34 0 .61-.14.61-.31 0-.17.2-.3.42-.3.24 0 .5-.2.6-.44.1-.26.4-.37.79-.27.36.1.63.02.63-.17 0-.2.27-.34.6-.34.34 0 .61-.14.61-.3 0-.18.23-.31.5-.31.5 0 1.63-1.1 1.63-1.57 0-.14.21-.26.47-.26.25 0 1.06-.58 1.8-1.3.73-.7 2.16-2.04 3.17-2.96 1.02-.92 1.85-1.88 1.86-2.14 0-.26.28-.66.62-.9.33-.25.6-.66.6-.92s.28-.67.62-.91c.33-.24.6-.65.6-.91s.28-.68.61-.92c.34-.24.61-.68.61-.98 0-.3.14-.54.3-.54.17 0 .31-.27.31-.6 0-.34.14-.62.3-.62.17 0 .31-.27.31-.6 0-.34.1-.62.23-.62.29 0 1.3-2.26 1.3-2.89 0-.25.13-.45.3-.45.16 0 .3-.28.3-.61 0-.34.14-.61.3-.61.17 0 .31-.34.31-.76s.13-.76.3-.76c.16 0 .77-.48 1.35-1.07 1.23-1.22 1.7-1.31 2.3-.46.25.34.67.61.95.61.33 0 .56.32.64.92.08.5.06.9-.04.9-.4.01-1.85 1.48-1.85 1.88 0 .24-.27.63-.6.87-.34.24-.61.68-.61.98 0 .3-.14.54-.3.54-.18 0-.31.26-.31.58 0 .31-.2.65-.44.74-.48.18-2.3 3.82-2.3 4.58 0 .27-.14.5-.3.5-.17 0-.31.27-.31.6 0 .34-.14.61-.3.61-.17 0-.31.28-.31.61 0 .34-.14.6-.3.6-.17 0-.3.42-.3.92s-.15.92-.31.92c-.17 0-.3.27-.3.6 0 .34-.15.61-.31.61-.17 0-.3.41-.3.92 0 .5-.14.9-.31.9-.17 0-.3.22-.3.47s-.14.45-.31.45c-.17 0-.3.41-.3.92s-.14.9-.3.9c-.18 0-.31.42-.31.92s-.14.92-.3.92c-.18 0-.31.4-.31.9s-.14.92-.3.92c-.17 0-.31.55-.31 1.22 0 .7-.15 1.22-.35 1.22-.22 0-.28.42-.17 1.24.12.9.05 1.28-.27 1.4-.24.09-.43.56-.43 1.04 0 .5-.16.89-.38.89-.25 0-.23.1.08.3.3.2.33.3.07.3-.27 0-.38.7-.38 2.44 0 1.42-.12 2.43-.3 2.43-.17 0-.3.63-.3 1.4 0 1.31-.12 1.5-1.99 3.31-1.08 1.06-1.97 2.09-1.97 2.3 0 .2-.2.29-.47.18-.48-.18-2.58 1.63-2.58 2.23 0 .17-.2.23-.44.14-.4-.16-1.7.84-2 1.55-.07.17-.3.27-.52.22-.46-.1-1.04.41-1.56 1.38-.22.4-.54.6-.8.5-.28-.11-.82.2-1.34.76-.49.52-1.04.95-1.22.95-.19 0-.34.14-.34.3 0 .17-.2.3-.45.3s-.46.12-.46.27c0 .4-1.1 1.57-1.47 1.57-.51 0-4 3.17-4 3.64 0 .36-3.27 3.66-3.63 3.66-.49 0-3.38 2.97-3.38 3.47 0 .25-.34.8-.76 1.22-.42.42-.76.92-.76 1.12 0 .4-1.16 1.5-1.57 1.5-.14 0-.26.27-.26.6 0 .34-.14.61-.3.61-.17 0-.3.34-.3.75 0 .47-.23.8-.62.93-.33.1-.6.46-.6.78s-.14.59-.31.59c-.17 0-.3.27-.3.6 0 .34-.14.62-.3.62-.18 0-.31.27-.31.6 0 .34-.14.61-.3.61-.18 0-.31.28-.31.61 0 .34-.14.61-.3.61-.17 0-.31.41-.31.92 0 .5-.14.9-.3.9-.17 0-.31.42-.31.92s-.14.91-.3.91c-.17 0-.3.48-.3 1.05 0 .58-.14 1.13-.3 1.23-.48.3-.36 10.51.13 10.51.3 0 .36.32.24 1.22-.1.8-.04 1.22.18 1.22.2 0 .35.4.35.9 0 .51.14.92.3.92.17 0 .3.28.3.61 0 .34.15.6.31.6.17 0 .3.25.3.55 0 .3.28.74.62.98.33.24.6.63.6.86 0 .23.42.8.92 1.27s.91 1.02.91 1.21c0 .2.54.87 1.21 1.48 1.84 1.7 2.08 1.88 2.56 1.88.25 0 .54.27.65.6.12.39.46.62.9.62s.8.22.92.6c.1.34.46.61.78.61.33 0 .6.14.6.3 0 .18.4.31.9.31s.92.14.92.3c0 .17.4.31.91.31.5 0 .91.15.91.33 0 .2.7.3 1.89.25 1.24-.05 1.92.04 2 .28.18.52 8.5.5 8.67-.02.1-.27.77-.35 2.35-.27 1.58.07 2.3-.01 2.46-.3.16-.25.78-.36 1.8-.3.84.04 1.53-.05 1.53-.2s.72-.3 1.6-.34c.88-.04 1.65-.2 1.7-.36.06-.16.8-.29 1.64-.29 1.07 0 1.65-.15 1.9-.49.33-.45.4-.45.85 0 .27.27.69.5.93.5.3 0 .5.49.64 1.52.14 1.02.34 1.52.64 1.52.26 0 .37.18.26.45-.11.3 0 .46.35.46.38 0 .48.17.36.64-.19.71 2.73 3.91 3.48 3.82.23-.02.44.07.47.21.09.38 1.12 1.08 1.37.93.12-.07.3.01.4.18.1.17.53.3.94.3.4 0 .74.15.74.31 0 .17.2.3.46.3.25 0 .45.15.45.31 0 .17.28.3.61.3.34 0 .61.14.61.31 0 .17.55.3 1.22.3.67 0 1.22.14 1.22.31 0 .17.54.3 1.21.3.67 0 1.22.14 1.22.3 0 .18.86.31 1.98.31s1.98.14 1.98.3c0 .19 1.04.31 2.52.31 2.17 0 2.58.09 2.96.61.24.34.62.61.85.61.27 0 .34.2.21.6-.1.36-.05.62.13.62s.33.24.33.54c0 .3.27.74.6.98.34.24.62.63.62.87 0 .5 1.14 1.57 1.69 1.57.49 0 .85.96.46 1.2-.18.11-.04.38.33.64.36.24.96.75 1.35 1.12.39.38.86.69 1.05.69.2 0 .75.42 1.24.94.53.57 1.06.88 1.34.77.25-.1.45-.03.45.15 0 .48.81 1.18 1.37 1.18.27 0 .41.14.3.3-.1.17.1.31.45.31.34 0 .62.14.62.3 0 .17.48.31 1.07.31s1.06.14 1.06.3c0 .17.41.3.92.3.5 0 .91.16.91.34 0 .19.48.29 1.14.24.76-.06 1.12.04 1.07.28-.1.47 10.74.53 11.03.06.1-.17.66-.3 1.24-.3.73 0 1.04-.14 1.04-.46 0-.35.2-.42.79-.27.7.18 1.28.02 2.94-.83a3 3 0 0 1 1.14-.27c.34 0 .61-.14.61-.3 0-.17.28-.3.61-.3.34 0 .61-.14.61-.31 0-.17.25-.3.54-.3.3 0 .74-.28.98-.62.25-.33.69-.6.98-.6.3 0 .55-.14.55-.3 0-.18.24-.31.54-.31.3 0 .74-.28.98-.61.24-.34.68-.61.98-.61.3 0 .54-.13.54-.29 0-.26 2.6-.83 3.14-.68.14.04.17-.07.06-.24-.13-.2.76-.31 2.57-.31 2.3 0 2.75-.08 2.75-.48 0-.39.2-.44.98-.27 1.02.22 1.76.79 1.76 1.33 0 .18.14.33.3.33.18 0 .31.27.31.6 0 .34.14.62.3.62.17 0 .31.21.31.47 0 .46 2.86 3.49 3.3 3.49.11 0 .34.3.51.68.17.37.57.73.9.8.34.06.8.38 1.03.71.32.46.64.56 1.3.43.65-.13.88-.06.88.28 0 .27.29.44.76.44.42 0 .76.16.76.35 0 .25.88.29 3.2.13 1.75-.12 3.2-.1 3.19.04 0 .13 1.1.2 2.44.15 1.33-.06 2.43-.23 2.43-.38s.55-.29 1.22-.29c.67 0 1.22-.13 1.22-.3 0-.17.54-.3 1.21-.3.67 0 1.22-.14 1.22-.3 0-.18.41-.31.91-.31s.92-.14.92-.3c0-.18.34-.31.76-.31s.76-.17.76-.38c0-1.28 3.41-.2 5.23 1.65 1.13 1.15 1.96 1.77 2.24 1.66.24-.1.45-.03.45.14 0 .64.9 1.19 1.95 1.19.6 0 1.09.14 1.09.3 0 .2 1.62.3 4.26.3 3.42 0 4.26-.07 4.26-.41 0-.32.34-.38 1.37-.27.91.1 1.37.04 1.37-.19 0-.18.28-.34.62-.34.59 0 .88-.1 2.35-.86.37-.2.88-.36 1.14-.36.25 0 .46-.13.46-.3 0-.17.27-.3.6-.3.34 0 .62-.14.62-.31 0-.17.27-.3.6-.3.34 0 .61-.14.61-.3 0-.18.28-.31.61-.31.34 0 .61-.14.61-.3 0-.18.25-.31.56-.31.31 0 .72-.34.9-.76.23-.48.51-.69.8-.58.5.19 1.5-.6 1.18-.9-.1-.11.16-.2.6-.2.52 0 .86-.2.98-.6.11-.34.45-.62.75-.62s.88-.4 1.28-.9.88-.92 1.08-.92c.48 0 2.83-2.15 2.83-2.58 0-.47 1.19-1.13 1.58-.89.2.13.26.08.12-.14-.12-.2-.02-.35.26-.35.26 0 1.15-.68 1.97-1.52.82-.84 1.64-1.52 1.82-1.52.19 0 .34-.24.35-.54 0-.5.03-.5.41 0 .23.3.56.54.75.54.2 0 .35.1.35.23 0 .36 1.53.96 2 .78.27-.1.44.03.44.32 0 .27.17.5.39.5.21 0 .58.27.82.6.25.34.69.61.98.61.3 0 .55.14.55.3 0 .17.26.3.59.3.32 0 .67.15.78.32.1.17.56.28 1 .23.53-.05.8.05.75.3-.05.2.19.38.51.38s.67.13.77.29c.1.16 1 .38 2 .5 1 .1 1.9.32 2 .47.23.37 8.64.33 8.64-.04 0-.17.41-.31.92-.31s.91-.14.91-.31c0-.18.37-.27.83-.2.85.1 1.6-.37 1.6-1.02 0-.2.22-.28.48-.18.48.19 1.96-1.03 1.96-1.62 0-.17.38-.55.84-.85 1.25-.8 2.2-1.82 2.2-2.35 0-.26.16-.47.34-.47.2 0 .27-.27.18-.61-.1-.4 0-.6.27-.6.24 0 .43-.22.43-.48 0-.28.15-.39.35-.26.2.12.27.08.16-.1-.38-.6.88-1.6 2.04-1.6.6 0 1.1.13 1.1.3 0 .17.42.3.92.3s.91.14.91.3c0 .18.34.31.76.31s.76.14.76.3c0 .18.82.31 1.83.31 1.01 0 1.83.14 1.83.3 0 .2 1.77.31 4.71.31 2.95 0 4.72-.11 4.72-.3 0-.17.69-.3 1.53-.3s1.52-.15 1.52-.31c0-.17.55-.3 1.22-.3.66 0 1.21-.14 1.21-.31 0-.17.41-.3.92-.3.5 0 .91-.14.91-.31 0-.17.27-.3.6-.3.34 0 .62-.14.62-.3 0-.18.2-.31.45-.31s.46-.14.46-.3c0-.17.38-.31.85-.31.5 0 1.02-.25 1.28-.61.24-.33.68-.6.98-.6.3 0 .54-.16.54-.33 0-.2.26-.25.61-.14.35.12.61.06.61-.13 0-.18.24-.32.54-.32.3 0 .74-.28.98-.61.24-.34.66-.61.92-.61s.67-.27.91-.6c.24-.34.65-.62.91-.62s.67-.27.92-.6c.24-.34.61-.62.82-.62.22 0 .4-.13.4-.3 0-.2 2.38-.3 6.54-.3s6.54-.11 6.54-.3c0-.18.69-.31 1.53-.31s1.52-.14 1.52-.3c0-.17.53-.31 1.19-.31.66 0 1.24-.12 1.3-.26.2-.5 2.07-.68 2.07-.2 0 .29.3.46.76.46.42 0 .77.14.77.3 0 .17.27.3.6.3.34 0 .61.15.61.33 0 .19.26.24.61.13.44-.14.61-.05.61.3s.17.45.61.31c.44-.14.6-.05.6.3 0 .37.18.45.62.31.43-.14.6-.05.6.29 0 .26.21.47.46.47s.46.16.46.35c0 .22.37.28 1.07.17.8-.13 1.06-.07 1.06.26 0 .27.3.44.76.44.42 0 .76.14.76.3 0 .17.54.3 1.2.3.66 0 1.27.12 1.36.26.25.42 12.44.27 12.58-.14.07-.23.55-.3 1.32-.2.95.14 1.2.07 1.2-.3 0-.38.22-.45 1.03-.32.6.1 1.1.03 1.23-.17.12-.19.46-.34.78-.34s.6-.13.66-.3c.06-.17.47-.33.92-.37.45-.04.75-.17.67-.3-.09-.14.17-.25.56-.25.4 0 .9-.27 1.15-.6.24-.34.68-.61.98-.61.3 0 .54-.14.54-.3 0-.18.27-.31.6-.31.4 0 .68-.27.8-.76.14-.58.34-.73.84-.62.48.11.93-.17 1.72-1.08 1.9-2.19 4.23-4.54 4.5-4.54.15 0 .46-.38.7-.84.23-.46.67-1.06.96-1.33.3-.27.54-.72.54-1 0-.26.13-.49.3-.49.17 0 .3-.27.3-.6 0-.34.14-.61.31-.61.17 0 .3-.28.3-.61 0-.34.14-.61.3-.61.18 0 .31-.41.31-.92 0-.5.14-.91.3-.91.17 0 .31-.41.31-.91s.15-.92.34-.92c.2 0 .3-.46.22-1.21-.08-.85 0-1.22.27-1.22.3 0 .39-1.1.39-4.72 0-2.94-.11-4.72-.3-4.72-.17 0-.3-.47-.3-1.05 0-.57-.15-1.13-.31-1.23-.17-.1-.3-.52-.3-.93 0-.41-.15-.75-.31-.75-.17 0-.3-.4-.3-.9s-.14-.92-.31-.92c-.17 0-.3-.28-.3-.61 0-.34-.14-.61-.31-.61-.17 0-.3-.27-.3-.6 0-.34-.14-.62-.3-.62-.18 0-.31-.27-.31-.6 0-.34-.14-.61-.3-.61-.18 0-.31-.28-.31-.61 0-.34-.14-.61-.3-.61-.18 0-.31-.87-.31-1.98 0-1.12-.13-1.98-.3-1.98-.17 0-.3-.55-.3-1.22 0-.67-.15-1.22-.31-1.22-.17 0-.3-.4-.3-.9 0-.51-.15-.92-.31-.92-.17 0-.3-.38-.3-.85 0-.5-.26-1.03-.62-1.28-.33-.24-.6-.62-.6-.83 0-.22-.16-.39-.35-.39-.19 0-.26-.27-.18-.6.1-.34.04-.7-.11-.79-.15-.1-.28-.43-.28-.76s-.14-.59-.3-.59c-.17 0-.3-.21-.3-.47 0-.62.72-1.42 4.59-5.06.65-.62 1.19-1.4 1.19-1.73 0-.34.26-.7.59-.8.32-.1.77-.6.98-1.09.22-.5.5-.9.63-.9s.23-.27.23-.6c0-.34.14-.61.3-.61.17 0 .31-.28.31-.61 0-.34.14-.61.3-.61.17 0 .31-.41.31-.91s.14-.92.3-.92c.17 0 .3-.27.3-.6 0-.34.15-.62.31-.62.17 0 .3-.4.3-.9 0-.51.16-.92.35-.92.23 0 .3-.42.18-1.22-.13-.96-.06-1.22.3-1.22.35 0 .43-.26.34-1.06-.09-.74 0-1.07.27-1.07.22 0 .4-.27.4-.6 0-.57.2-.62 2.58-.62 1.52 0 2.59-.12 2.59-.3 0-.17.35-.3.78-.3.87 0 1.8-.75 1.51-1.2-.12-.2-.46-.2-.95-.01-.43.16-2.07.3-3.66.3-3.59 0-3.9.26-4.96 4.14-2.2 8.13-3.54 10.59-8.44 15.65-3.6 3.71-3.72 4.01-2.49 6.3 2.07 3.83 2.73 5.33 3.17 7.3 1.11 4.96 1.74 7.09 2.86 9.67 5.03 11.6 3.08 22.1-5.63 30.25-8.3 7.77-20.92 10.48-32.03 6.88-1.82-.59-1.95-.65-6.02-2.57-3.63-1.72-4.89-1.85-8.68-.93-2.87.7-5.51.94-10.66 1.01-5.96.08-5.34-.1-9.87 2.95-7.07 4.77-13.52 6.85-21.32 6.86-5.17 0-5.94-.13-10.6-1.74-3.24-1.13-3.7-1-4.92 1.33-5.88 11.3-16.37 12.64-30.67 3.94-3.62-2.2-3.3-2.33-10.66 4.5-7.54 7.01-17.66 11.7-25.35 11.74-4.61.02-6.06-.56-9.05-3.63-2.39-2.46-2.4-2.47-8.68-.51-12.78 3.97-21.2 2.09-25.28-5.66-.97-1.82-1.88-2.72-2.32-2.28-.11.11-.32.02-.46-.2-.37-.6-6.45-.51-8.24.12-.75.26-3.07 1.5-5.17 2.73-15.74 9.27-31.4 6.51-39.6-6.96-.94-1.54-2.04-2.96-2.56-3.27-.93-.57-1.13-.6-6.7-1.17-9.95-1.01-15.94-4.56-17.96-10.64-1.08-3.25-1.19-3.28-7.87-1.85-28.31 6.03-44.74-6.92-37.26-29.37 3.35-10.05 11.32-19.1 27.62-31.37 8.43-6.34 9.13-7.12 9.14-10.1.01-8.25 5.9-24.83 12.28-34.54 3.1-4.72 3.07-5.79-.15-7.08-2.7-1.08-3.63-.18-6.96 6.74-8.07 16.8-22.68 25.38-38.53 22.61-17.6-3.07-25-11.85-14.8-17.56 3.86-2.16 4.6-3.3 5.08-7.85 1.52-14.45 8.17-24.46 20.1-30.3 17.25-8.43 35.92-1.63 44.4 16.19 1.91 4.03 1.61 4.02 7.04.16 9.75-6.95 18.7-10.69 29.68-12.42 3.45-.54 15.99-.53 19.52.02 3.88.6 3.77.68 6.33-4.05 2.86-5.27 4.9-7.96 11.23-14.8 1.54-1.67 2.57-4.13 4-9.6 3.18-12.1 14-23.12 30.63-31.22 7.76-3.78 7.51-3.54 7.88-7.43 1.86-19.36 10.02-34.15 23.85-43.27a39.37 39.37 0 0 1 7.21-3.75c8.78-3.78 13.35.93 9.76 10.03-3.93 9.97-5.4 22.9-2.91 25.57 3.5 3.75 20.47-5.7 29.78-16.59 9.27-10.84 15.55-8.86 18.28 5.76.5 2.68 1.08 2.83 5.4 1.42 11.7-3.82 14.29-3.7 19.16.9 2.2 2.08 2.52 2.16 10.8 2.86 4.31.36 6.66.73 10.07 1.58 6.54 1.64 7.27 1.2 7.27-4.36 0-6.03-2.26-12.41-7.41-20.9-6.67-11.01-.6-15.9 13.05-10.49 26.71 10.6 38.74 43.12 25.98 70.26-2.34 4.96-2.06 5.53 3.4 7l2.12.61 2.13.62c14.52 4.06 17.78 8.1 16 19.78-1.48 9.69-6.17 16.06-15.21 20.7-3.06 1.57-3.94 2.53-3.72 4.09.68 4.83 2.14 8.73 4.33 11.6 5.43 7.1 9.02 15.96 10.81 26.62.65 3.86.37 11.84-.5 14.08-.12.32-.06.53.15.53.2 0 .27-.13.17-.3-.1-.17.02-.3.28-.3.33 0 .48-.3.48-.92 0-.5.15-.91.33-.91.2 0 .29-.5.23-1.3-.08-.91 0-1.27.28-1.21.29.05.38-1.1.38-4.95 0-4.11-.08-5.02-.43-5.02-.34 0-.4-.39-.26-1.83.13-1.48.08-1.83-.29-1.83-.35 0-.42-.34-.3-1.71.1-1.24.04-1.66-.2-1.5-.23.13-.35-.1-.35-.73 0-.5-.14-.93-.3-.93-.17 0-.3-.4-.3-.9 0-.51-.15-.92-.31-.92-.17 0-.3-.41-.3-.92s-.15-.9-.31-.9c-.17 0-.3-.42-.3-.92s-.14-.92-.31-.92c-.17 0-.3-.27-.3-.6 0-.34-.14-.61-.31-.61-.17 0-.3-.41-.3-.92 0-.5-.14-.91-.3-.91-.18 0-.31-.27-.31-.6 0-.34-.14-.62-.3-.62-.17 0-.31-.27-.31-.6 0-.34-.14-.62-.3-.62-.17 0-.31-.26-.31-.58 0-.33-.27-.68-.61-.79-.38-.12-.6-.46-.6-.9 0-.47-.23-.8-.64-.93-.35-.11-.56-.37-.48-.6.09-.22-.17-.65-.58-.96-.41-.3-.74-.8-.74-1.08 0-.3-.48-1-1.07-1.6-.58-.58-1.06-1.27-1.06-1.53 0-.25-.14-.46-.3-.46-.18 0-.31-.28-.31-.61 0-.34-.14-.61-.3-.61-.17 0-.31-.41-.31-.91s-.14-.92-.3-.92c-.17 0-.31-.4-.31-.9 0-.51-.14-.92-.3-.92-.17 0-.31-.55-.31-1.22s-.14-1.22-.3-1.22c-.58 0-.36-2.67.26-3.1.31-.22.6-.54.63-.7.03-.17.26-.27.5-.22.24.05.43-.12.43-.38 0-.36.2-.43.76-.29.42.1.76.07.76-.07s.45-.46 1-.7c1.14-.5 1.74-1.04 1.74-1.55 0-.2.21-.28.49-.17.3.12.8-.15 1.34-.73.47-.5 1-.92 1.2-.92.44 0 3.67-3.23 3.67-3.67 0-.19.41-.73.91-1.2s.92-1 .92-1.18c0-.19.14-.34.3-.34.17 0 .3-.27.3-.6 0-.34.14-.62.31-.62.17 0 .3-.27.3-.6 0-.34.15-.61.32-.61s.23-.33.12-.77c-.14-.55-.07-.76.26-.76.52 0 .82-.89.82-2.5 0-.64.14-1.15.31-1.15.17 0 .3-.62.3-1.37 0-.75.14-1.37.31-1.37.2 0 .3-1.92.3-5.16 0-3.1-.12-5.23-.3-5.34-.17-.1-.3-.58-.3-1.07 0-.48-.14-.96-.3-1.06-.18-.1-.31-.45-.31-.76 0-.7-2.82-3.66-3.48-3.66-.27 0-.48-.13-.48-.3 0-.17-.27-.3-.6-.3-.34 0-.62-.14-.62-.3 0-.18-.27-.31-.6-.31-.34 0-.61-.14-.61-.3 0-.18-.28-.31-.61-.31-.34 0-.61-.14-.61-.3 0-.17-.41-.31-.92-.31-.5 0-.91-.14-.91-.3 0-.17-.41-.31-.91-.31s-.92-.15-.92-.34c0-.22-.33-.28-.9-.16-.72.14-.92.07-.92-.3 0-.39-.2-.45-.92-.31-.68.14-.9.07-.9-.27 0-.27-.3-.45-.77-.45-.42 0-.76-.13-.76-.3 0-.17-.41-.3-.91-.3s-.92-.16-.92-.34c0-.21-.46-.3-1.21-.22-.9.08-1.22 0-1.22-.31s-.25-.38-.92-.25c-.7.15-.9.08-.9-.3s-.21-.45-.92-.3c-.82.16-.92.1-.92-.58 0-.41.14-.75.3-.75.18 0 .31-.2.31-.46s.14-.45.3-.45c.18 0 .31-.28.31-.61 0-.34.14-.61.3-.61.17 0 .31-.27.31-.6 0-.34.14-.62.3-.62.17 0 .3-.4.3-.91s.15-.91.31-.91c.17 0 .3-.28.3-.61 0-.34.16-.61.34-.61.18 0 .28-.41.23-.93-.06-.55.07-1.03.32-1.18.25-.16.35-.53.25-.92-.1-.42-.01-.72.26-.83.24-.09.44-.5.44-.9s.13-.72.3-.72c.17 0 .3-.54.3-1.2s.16-1.3.34-1.41c.21-.13.29-.83.2-1.85-.1-1.16-.02-1.63.25-1.63.28 0 .37-1.9.38-8.07.02-6.3-.06-8.06-.36-8.06-.29 0-.35-.5-.26-1.83.1-1.22.02-1.83-.2-1.83-.2 0-.35-.52-.35-1.21 0-.67-.13-1.22-.3-1.22-.17 0-.3-.4-.3-.89s-.14-.93-.3-.99c-.16-.06-.32-.6-.36-1.22-.04-.62-.18-1.06-.32-.97-.13.08-.24-.14-.24-.48 0-.35-.14-.63-.3-.63-.17 0-.31-.48-.31-1.06 0-.59-.14-1.07-.3-1.07-.17 0-.31-.27-.31-.6 0-.34-.14-.62-.3-.62-.17 0-.3-.2-.3-.45s-.15-.46-.31-.46c-.17 0-.3-.27-.3-.6 0-.34-.14-.62-.31-.62-.17 0-.3-.27-.3-.6 0-.34-.14-.61-.31-.61-.17 0-.3-.28-.3-.61 0-.34-.13-.61-.27-.61-.15 0-.35-.41-.45-.92-.11-.56-.37-.9-.68-.9-.33 0-.43-.17-.31-.49.19-.5-.45-1.35-1-1.35-.18 0-.24-.2-.15-.45.11-.28-.2-.8-.77-1.34-.52-.49-.95-1.07-.96-1.3-.01-.22-.84-1.16-1.83-2.08s-2.7-2.53-3.78-3.57c-1.17-1.14-2.13-1.83-2.39-1.73-.28.1-.5-.1-.62-.6-.11-.43-.57-.91-1.1-1.15-.5-.22-.92-.5-.92-.64 0-.12-.22-.23-.5-.23-.27 0-.74-.29-1.05-.64-.33-.38-.75-.57-1.03-.46-.32.12-.6-.07-.82-.58-.2-.41-.6-.75-.9-.75-.31 0-.57-.14-.57-.3 0-.17-.27-.3-.6-.3-.34 0-.61-.15-.61-.31 0-.17-.28-.3-.61-.3-.34 0-.61-.15-.61-.31 0-.17-.28-.3-.61-.3-.34 0-.61-.14-.61-.31 0-.17-.41-.3-.91-.3s-.92-.16-.92-.35c0-.22-.33-.27-.91-.16-.65.13-.91.07-.91-.22 0-.45-1.52-.79-3.58-.8-.71 0-1.3-.13-1.3-.3 0-.18-1-.3-2.43-.3s-2.43.12-2.43.3m7.3 10.88c0 .34.21.78.47 1 .94.78 4.7 10.01 5.9 14.51.45 1.69.92 2.1 2.67 2.37 1.67.25 3.34 1.03 4.17 1.94.8.89.2 1.08-2.74.89-3.1-.2-3.47.23-3.47 4.05 0 3.08.39 3.63 2.52 3.63 4.3 0 11.27 3.09 9.94 4.4-.44.45-.96.38-3.78-.44-6.96-2.04-10.8-1.52-9.71 1.33.1.26 1.5 1.53 3.12 2.83 13.4 10.75 16.83 20.56 8.8 25.17-1.6.91-1.82 1.59-.83 2.49 1.08.98 4.62-3.33 6.6-8.03 5.81-13.87 4.12-31.25-4.11-42.03-6.01-7.87-19.55-17.64-19.55-14.1m9.05 4.68c6.31 4.34 15.3 16 15.3 19.83 0 .27.14.57.3.67.18.1.31.52.31.91 0 .4.13.8.28.9.32.2.62 1.96.83 4.96.32 4.44-1.77 2.25-2.82-2.96-.09-.42-.3-1.1-.48-1.53-.18-.41-.42-1.03-.55-1.37-.49-1.3-2.9-6.09-3.11-6.19-.13-.05-.23-.23-.23-.4 0-.35-1.3-2.3-3.62-5.43-1.82-2.45-6.28-7.07-9.45-9.8-3.39-2.91-1.2-2.64 3.24.4M228.7 23.27c-15.43 8.83-23.84 30.74-19 49.5 2.33 9 7.99 18.53 12 20.21 3.41 1.44 5.29 2.6 5.97 3.73 1.4 2.29 2.83 2.42 4.7.42 2.75-2.94 2.56-3.97-.75-3.97-2.66 0-3.84-1.2-2.1-2.13.34-.18.6-.64.6-1.03 0-1.98 2.9-4.23 4.56-3.54 1.13.47 2 1.4 1.56 1.67-.4.24-.43 1.28-.05 1.51.15.1 1.15-.03 2.2-.28 2.7-.63 2.86-.6 4.3.71 3.82 3.5 5.62 1.24 4.8-5.98-.83-7.15-2.56-10.9-8.17-17.63a66.55 66.55 0 0 1-6.37-8.92c-2-3.46-2.48-3.58-7.45-1.83-6.62 2.34-5.87.2.92-2.6 3.33-1.4 3.43-1.56 2.65-4.58-.82-3.15-1.3-3.48-4.09-2.84-2.48.57-2.31-.93.27-2.45 2.26-1.33 2.44-1.62 2.44-3.76 0-4.49.99-9.57 2.63-13.56 1.45-3.5 1.04-4.17-1.62-2.65m.2 1.27c0 .15-2.44 3.11-3.57 4.33-.21.23-.76.92-1.22 1.53-.45.61-.9 1.18-1 1.27-.53.48-4.25 6.3-4.25 6.67 0 .15-.1.33-.22.38-.33.14-2.21 3.9-2.21 4.4 0 .23-.14.42-.3.42-.17 0-.31.2-.31.46s-.14.73-.3 1.07l-.61 1.2c-.17.34-.3.88-.3 1.2 0 .33-.13.68-.28.77-.15.09-.34.54-.43 1-.1.47-.33 1.46-.52 2.22-.37 1.44-.7 3.8-1.07 7.69-.2 2.1-.3 2.38-.92 2.53-1.27.32-2.06.02-2.3-.87-.33-1.26.46-8.94.98-9.5.15-.15.27-.6.27-.98 0-.4.12-.95.27-1.24.14-.29.43-1.07.63-1.74a27.87 27.87 0 0 1 1.14-3.2c2.98-7.68 9.42-15.76 15.47-19.39.67-.4 1.06-.49 1.06-.22m46.03 11.31c-.34.3-1.64 1.77-2.88 3.28-3.44 4.2-9.36 9.04-15.05 12.35-1.54.9-2.75 1.69-2.67 1.76.07.07.33-.04.59-.26.26-.2.46-.3.46-.2 0 .94 7.9-4.29 12.33-8.16 2.64-2.31 2.53-2.2 5.7-5.87 2.24-2.59 2.98-3.04 2.98-1.82 0 .4.15.86.34 1.04.58.6-.32 8.56-1.24 10.9a35.9 35.9 0 0 0-.62 1.82 53.75 53.75 0 0 1-3.49 7.4c-1.64 2.74-.34 2.62 5.08-.5l2.29-1.3c.63-.35 1.5-.9 1.95-1.22.44-.31.88-.57.98-.57.09 0 1.37-.72 2.84-1.6a77.02 77.02 0 0 1 4.2-2.36c.83-.41 1.59-.82 1.67-.9a4.46 4.46 0 0 1 1.98-.92c.25 0 .46-.14.46-.3 0-.18.27-.31.6-.31.34 0 .61-.14.61-.3 0-.17.27-.31.6-.31.32 0 .67-.14.77-.3.1-.17.53-.31.94-.31.4 0 .74-.14.74-.3 0-.17.68-.3 1.52-.3 1.93 0 1.98.43.42 3.64-2.1 4.32-1.7 5.36 1.52 3.98.75-.32 2.3-.81 3.44-1.08a195 195 0 0 0 3.45-.84c1.77-.46 12.38-.44 14.61.02.92.2 2.77.57 4.11.84 2.7.54 4.42 1.04 4.86 1.4.15.14.5.25.78.25.44 0 2.42.81 3.72 1.53.29.16.73.3.99.3.25 0 .46.1.46.23 0 .12.44.42.99.66a30.7 30.7 0 0 1 3.18 1.88c5.64 3.71 10.2 8.75 9.07 10-.54.6-.53.62.27.62 4.18 0-5-9.57-13.07-13.63-11.43-5.75-23.52-6.9-35.6-3.42-3.27.94-3.63.54-2.18-2.37 3.78-7.53-1.46-6.48-18.52 3.72-5.12 3.06-8.13 4.74-8.52 4.74-.42 0-.05-1.05 1.18-3.39 4.4-8.34 5.27-23.07 1.16-19.52m-42.02 23.14a61.9 61.9 0 0 1 1.47 2.37c.3.64 3.9 5.2 5.1 6.48 2.88 3.05 2.36 5.86-.56 3.03-2.27-2.2-4.14-4.97-6.03-8.91a235.8 235.8 0 0 0-1.59-3.27c-.35-.69-.35-1.76 0-1.76.16 0 .88.93 1.6 2.06m105.36 10.94c.3.08.77.08 1.07 0 .29-.08.05-.14-.54-.14-.58 0-.82.06-.53.14m-4.03 2c0 .2.78 1.05 1.74 1.9 8.1 7.08 12.51 13.11 14.7 20.1.37 1.16.8 2.36.94 2.65.15.3.27.87.27 1.28 0 .4.16.84.35.96 1.03.64-.93-5.62-3.17-10.12a43.3 43.3 0 0 0-10.9-13.83c-3.86-3.28-3.93-3.33-3.93-2.95m-138.2 2.33c-15.44 6.16-27.14 19.57-28.18 32.3l-.21 2.58-2.63 2.44c-9.01 8.39-13.1 15.24-14.15 23.68-.3 2.35.31 1.64.67-.79a33.53 33.53 0 0 1 2.85-8.67c.36-.62.83-1.48 1.06-1.93.23-.44.61-.97.86-1.18.25-.2.45-.5.45-.66 0-.5 2.12-2.91 7.05-8l4.77-4.92.15-2.26c.09-1.24.3-2.95.47-3.79l.52-2.51c.11-.55.32-1.07.47-1.16.15-.1.27-.43.27-.76s.14-.59.3-.59c.17 0 .31-.2.31-.46 0-.44.57-1.65.93-1.97.1-.09.4-.65.68-1.26s.72-1.27.97-1.48c.26-.21.46-.52.46-.68 0-.4 2.12-2.99 4.4-5.36a51.39 51.39 0 0 1 17.07-11.47l1.82-.77c1.96-.82 2.86-.47 2.88 1.14.01.36.17.76.37.88.45.28.13-1.88-.38-2.5-.49-.58-2.57-.51-4.24.15m164.64 17.1c-.64.37-.4 1.34 1.09 4.4a128.1 128.1 0 0 1 1.7 3.65c3.13 7.2 3.47 7.36 10.96 5.38 4.88-1.3 9.4-4.5 9.43-6.66 0-1.26-.15-1.34-5.5-2.67-2.41-.6-6.02-1.58-8-2.17-6.87-2.01-8.86-2.41-9.68-1.93m3.9 1.06c.47.1 1.14.3 1.48.45.33.14.95.32 1.37.4.42.1 1.3.32 1.98.52.67.2 1.66.42 2.2.5.55.1 1.07.29 1.17.44.09.15.56.27 1.04.27s.95.12 1.04.27c.1.15.65.35 1.24.46l2.14.37c.58.1 1.14.3 1.23.45.1.15.48.27.87.27 3.39 0 3.05 2.85-.48 3.96-.73.22-1.45.52-1.61.66-.16.14-.67.25-1.12.25-.46 0-.92.14-1.03.3-.1.18-.72.31-1.37.31-.65 0-1.26.14-1.37.3-.1.18-.77.31-1.5.31-.7 0-1.73.15-2.26.34-2.11.73-3.36-.46-6.05-5.82-1.9-3.8-2.24-4.98-1.53-5.29.37-.15.61-.13 2.55.28m-121.95 5.17c-.76.21-2.05.54-2.88.74-5.03 1.17-5.75 3.36-1.1 3.36 2.14 0 3.61-.56 4.46-1.72 1.7-2.32 1.58-2.96-.48-2.38m-23.6 8.25a8.1 8.1 0 0 0-1.21.43c-1.05.49-5.52 2.1-13.16 4.73-9.69 3.34-10.01 3.52-9.27 5.15 2.43 5.35 29.1 6.21 40.96 1.32 4.45-1.83 5.21-1.01 5.21 5.53 0 12.25-9.7 22.95-22.4 24.68-3.79.52-5.02 1.66-8.35 7.74-3.76 6.87-3.94 11.1-.47 11.11 2.1 0 2.19-.03 12.12-5.2 4.3-2.25 4.52-1.83 1.88 3.48-5.27 10.58-5.26 25.13.02 25.5 2.67.2 3.5-.48 9.12-7.46 7.96-9.88 8.04-9.9 6.06-1.86a46.41 46.41 0 0 0-1.68 12.33c-.17 5.24 0 6.63 1.2 10.2 3.17 9.45 12.2 7.55 24.75-5.21 2.7-2.74 5.13-4.99 5.41-4.99 1.1 0 1.26 1.34.5 4.19-.79 3.04-1.1 5.25-.72 5.25 2.66 0 8 1.18 10.1 2.21 1.53.76 3.89.47 5-.61 1.67-1.61 2.26-1.27 1.12.66-.79 1.34-.86 1.24 2.86 4.04 6.14 4.6 10.5 8.86 14.36 14.02 1 1.33 1.36 1.6 2.14 1.6 2.83 0 9.55-6.7 14.27-14.23 2.13-3.4 2.66-3.6 3.36-1.17.26.9.48 1.88.48 2.17a8 8 0 0 0 .3 1.62c.61 2.34 1.3 5.1 1.44 5.9.09.47.28.92.42 1.01.15.1.27.38.27.64 0 .86 2.21 4.96 3.26 6.04 1.06 1.09 3.41 1.54 3.9.76.1-.17.4-.3.64-.3 2.74 0 10.29-8.67 14.33-16.45 2.27-4.35 2.8-5.04 4.4-5.74 3.03-1.32 4.88-4.31 6.64-10.7.4-1.42.9-2.79 1.15-3.04 1.1-1.17 3.13 3.84 3.13 7.73 0 3.9.91 4.53 3.18 2.16 4.28-4.45 5.7-9.62 5.76-20.97.04-8.27.1-8.5 2.08-7.15.99.67 1.7 1.26 5.8 4.73 2.64 2.24 3.43 1.84 3.38-1.72-.08-7.05-3.41-17.42-8.78-27.36a17.22 17.22 0 0 1-1.38-2.95c0-.6-.59-.84-.79-.32-.2.52.44 1.98 2 4.6.6 1 1.41 2.52 1.8 3.35.4.84.83 1.76.98 2.05.15.3.27.74.27 1 0 .25.14.45.3.45.18 0 .31.27.31.6 0 .32.14.67.3.77.17.1.31.46.31.79s.14.86.3 1.2l.61 1.2c.17.34.31.88.31 1.2 0 .33.14.69.3.79.17.1.3.58.3 1.06 0 .49.13.96.28 1.05.15.09.35.61.44 1.16l.37 1.98c.15.7.1.99-.18.99-.26 0-.22.19.14.59.64.7.84 4.34.28 4.9-.3.32-1.76-.4-2.54-1.24-.77-.85-7-4-7.69-3.9l-.68.1-.2 8.83c-.2 9.17-.57 13.05-1.47 15.22-1.18 2.88-2 3.99-2.61 3.57-.62-.43-1.66-2.15-1.66-2.76 0-.34-.13-.7-.3-.8-.17-.11-.3-.55-.3-.98 0-.83-1.56-4.13-2.3-4.87-.75-.75-1.4-2.22-1.15-2.61.12-.2.32-1.95.44-3.87.12-1.93.31-3.95.43-4.5.3-1.4-.15-1.21-1.35.55-1.16 1.7-4.47 4.86-5.1 4.86-.23 0-.41.1-.41.23s-.45.41-1 .63c-2.08.86-2.52 1.04-3.03 1.3-.3.15-.8.27-1.13.27-.32 0-.67.13-.76.27-.09.15-.61.35-1.16.44a42 42 0 0 0-2.36.49c-7 1.67-23.68 3.82-34.67 4.46-9.5.56-16.29-2.76-19.78-9.65-1.42-2.81-1.84-4.2-2.73-8.95-.29-1.52-.54-1.92-.94-1.5-.93 1-.93 13 0 13.97.16.16.28.67.28 1.13 0 .45.14.92.3 1.02.17.1.31.45.31.76 0 1.52 4.78 7.6 5.97 7.6.2 0 .42.11.47.24.1.21 2.45 1.4 3.76 1.9 1.73.66 5.94 1.55 7.17 1.52.58-.01 2.38.13 4.01.32 2.16.24 4.07.24 7 0 2.22-.18 5.2-.38 6.63-.44 1.42-.06 3.96-.27 5.63-.47a960.41 960.41 0 0 1 9.44-1.08l1.52-.2-.91.8c-.5.42-1.3.94-1.75 1.15-.47.2-.84.48-.84.6 0 .13-.22.24-.48.24-1.15 0-1.5.9-1.47 3.78.07 5.84 3.1 7.39 7.03 3.6 2.26-2.17 2.57-1.45.83 1.94-2.26 4.38-4.82 6.84-6.23 5.96-.32-.2-.74-.37-.92-.37-.66 0-3.27-2.04-7.1-5.54-6.2-5.7-5.96-5.7-11.77.28a82.22 82.22 0 0 1-5.15 4.96 55.6 55.6 0 0 0-1.95 1.59c-.93.82-5.24 2.97-5.96 2.97-.73 0-2.45-.8-2.45-1.15 0-.53-4.71-4.92-7.27-6.77-1.57-1.14-4-3.91-4-4.57 0-.3-.13-.64-.3-.75-.16-.1-.31-.7-.32-1.31-.04-1.76-1.91-4.32-2.33-3.18a.62.62 0 0 1-.54.38c-.22 0-1.1.69-1.95 1.52-1.54 1.5-2.27 1.79-3.3 1.26l-1.44-.69c-1.72-.79-5.95-5.5-5.95-6.63 0-.18-.1-.33-.23-.33-.24 0-.57-.72-1.44-3.2-1.15-3.25-2.02-3.34-6.15-.64-3.87 2.52-7.03 4.13-9.07 4.6-1.75.42-4.78.52-5.12.18a1.36 1.36 0 0 0-.83-.33c-4.16 0-7.72-12.54-6.13-21.61l.53-3.09c.26-1.48-.19-1.68-1.92-.87-1.3.62-4.9 2.9-5.25 3.34-.09.1-.63.52-1.22.92s-1.13.8-1.22.9c-.08.1-.65.54-1.26 1-.62.46-1.3 1.01-1.53 1.23-2 1.95-3.45 2.45-4.31 1.49-.59-.65-.76-8.38-.2-8.73.16-.1.3-.65.3-1.22s.14-1.11.3-1.21c.17-.1.31-.53.31-.94 0-.41.16-1.05.35-1.43.76-1.46.87-1.76.87-2.35 0-.33.13-.61.3-.61.17 0 .3-.18.3-.4 0-.37 1.4-3.54 2.14-4.85 1.03-1.83-.61-2.02-7-.82l-3.35.62c-2.56.48-5.48.67-5.48.35 0-.43 7.85-6.77 8.38-6.77.53 0 7.16-5.54 8.85-7.4a48.04 48.04 0 0 0 5.88-8.58 45.3 45.3 0 0 0 1.5-3.58c.62-1.6.96-2.91.96-3.66 0-.44.14-.88.3-.98.17-.1.3-.87.3-1.7 0-1.66.49-4 1.07-5.15.4-.78 5.48-4.53 6.17-4.56.2 0 .38-.12.38-.26s.34-.42.76-.61c2.47-1.16 2.05-1.27 4.63 1.24 3.78 3.68 8.03 6.88 11.2 8.45.84.42 1.57.86 1.62.99.06.12.37.23.69.23.32 0 .58.13.58.3 0 .17.2.3.45.3s.93.28 1.53.61c.6.34 1.35.61 1.68.61.33 0 .6.14.6.3 0 .18.34.31.75.31.4 0 .82.14.93.3.1.17.58.31 1.06.31.48 0 .96.14 1.07.3.1.17.63.3 1.17.3.54 0 1.13.15 1.3.33.32.31 6.85.23 11.99-.16l2.28-.17 2.28 1.7a53.63 53.63 0 0 0 10.5 6.07c.68.28 1.46.64 1.75.79.3.15.94.28 1.43.28.5 0 .98.13 1.09.3.1.18 1.67.3 3.65.3s3.55-.12 3.65-.3c.1-.17.57-.3 1.03-.3.45 0 .96-.11 1.12-.24a7.2 7.2 0 0 1 1.5-.66c2.22-.74 7.46-5.17 7.46-6.3 0-.23.1-.41.23-.41s.42-.45.64-1l.72-1.74a24.4 24.4 0 0 0 1.17-3.35c.61-2.13.94-2.15 4.62-.27.3.15.8.27 1.13.27.32 0 .67.12.76.27.21.34 2.04.64 5.2.84 1.33.09 2.6.3 2.81.47.42.35.52 1.35.15 1.51-.61.28-2.36 2.95-2.9 4.45-1.06 2.96-.01 8.29 1.64 8.29.46 0 .93.14 1.03.3.1.17.52.3.91.3 1.44 0 5.47 2.38 7.96 4.69 3.56 3.31 6.81 3.96 11.69 2.32l1.85-.63.97.67.98.67-.9-.96c-.9-.98-2.35-1.32-2.77-.64-.1.18-.4.25-.63.16-.24-.1-1.06.04-1.81.3-1.84.62-3.95.48-3.9-.26.04-.45-.19-.53-1.4-.49-1.66.06-2.37-.34-5.42-3.11-1.79-1.62-3.36-2.56-6.3-3.77-4.66-1.9-4.87-6.89-.5-11.33 6.73-6.83 15.63-1.3 16.38 10.17.22 3.38.7 3.19.7-.29 0-2.16-.2-3.04-1.28-5.71a15.83 15.83 0 0 0-2.88-4.78 9.22 9.22 0 0 1-1.3-1.66c-.02-.3-2.72-1.61-4.28-2.08-2.35-.72-2.36-.82-.39-2.87 2.2-2.29 3.38-3.86 4.33-5.74 1.05-2.1 1.57-1.86 2.48 1.15.2.67.47 1.49.6 1.82.13.34.33 1.02.43 1.53.1.5.32 1.42.48 2.05.71 2.8.9 3.5 1.21 4.8.2.75.42 1.88.5 2.5.1.64.29 1.23.44 1.32.15.1.27.63.27 1.2 0 .56.14 1.11.3 1.21.17.1.31.53.31.94 0 .4.14.74.3.74.17 0 .3.17.3.38s.28.55.6.76c.6.36.6.36.03-.61-.3-.55-.79-2.01-1.07-3.27-1.48-6.73-4.87-19.83-5.36-20.74-.66-1.24-1.48-.37-1.5 1.56-.01 3.33-3.9 7.19-8.85 8.78-1.27.42-8.01.47-9.29.08l-2.25-.66a35.3 35.3 0 0 1-3.3-1.26c-2.98-1.31-3.19-1.18-3.53 2.2-.24 2.39-.71 4.75-1.15 5.78-.77 1.8-1.03 2.3-1.38 2.68-.21.22-.38.51-.38.65 0 .13-.65.89-1.45 1.68-6.72 6.72-20.62 4.22-32.95-5.93-5.48-4.51-5.72-4.61-7.4-3.08-2.62 2.42-7.38 3.02-12.24 1.55-9.7-2.95-17.7-8.96-22.3-16.78-2.23-3.78-2.4-3.9-3.76-2.49-4 4.15-16.04 4.26-24.3.2-2.74-1.33-4.56-1.77-5.95-1.43m4.26 4.32c4.07 4.22 4.59 5.42 2.67 6.19l-1.46.58c-.75.3-2.22.68-3.04.78-.33.04-1.43.22-2.43.4-5.68 1.04-12.6 1.12-16.1.19-2.58-.68-5.52-1.9-5.44-2.26.04-.2-.06-.34-.23-.34-1.5 0 .63-1.5 3.5-2.46a7.18 7.18 0 0 0 1.5-.65c.17-.13.58-.24.94-.24.35 0 .77-.11.92-.25.16-.14 1.32-.57 2.58-.97s2.41-.83 2.57-.97c.16-.13.54-.25.84-.25.53 0 .84-.11 2.3-.86.36-.2.92-.35 1.22-.35.3 0 .69-.12.84-.26.63-.54 3.43-1.18 5.01-1.14.93.02 1.41.38 3.8 2.86m-27.23 16.27c0 .87.6 1.31.6.46 0-.47-.14-.84-.3-.84-.17 0-.3.17-.3.38m-146.43 1.95c-12.32 1.71-25.12 15.62-21.77 23.65.94 2.23.24 4.13-3.52 9.67a17.6 17.6 0 0 0-1.2 1.9c0 .09-.42.83-.93 1.66-2.43 3.9 1.48 6.17 10.68 6.2 11.87.04 19.7-5.14 26.78-17.71 4.76-8.44 8.65-12.13 13.78-13.08 2.47-.46 2.47-.43.4-3.03-5.65-7.08-14.77-10.57-24.22-9.26m7.46.73c6.22.7 15.48 5.6 14.66 7.73-.13.32 0 .47.38.47.48 0 1.55 1.15 1.55 1.66 0 .31-1.53.17-2.11-.2-.46-.28-.77-.28-1.38 0a4.5 4.5 0 0 1-1.55.37c-.42 0-1 .12-1.28.28l-2.81 1.39c-3.23 1.57-3.85 2.07-9.14 7.25-5.04 4.95-9.64 9.14-11.08 10.12a30.98 30.98 0 0 1-4.14 2.44c-.58.27-1.3.61-1.6.77-.28.15-.79.27-1.12.27-.32 0-.68.14-.78.3-.1.18-.51.31-.91.31s-.81.14-.92.3c-.1.18-.5.31-.9.31s-.82.14-.92.3c-.1.17-.73.31-1.39.31-2.14 0-1.24-3.31 1.87-6.85 1.56-1.77.94-2.85-1.75-3.06-4.03-.31-4.74-5.07-1.6-10.67 1.2-2.16 1.35-2.41 1.5-2.55.08-.09.56-.7 1.05-1.36 5.25-7.03 14.95-10.97 24.37-9.9m295.02.13c-3.55 1.27-4.14 4.88-1.21 7.45 2.31 2.04 4.94 1.25 6.5-1.96 1.06-2.2-.6-5.63-2.73-5.63a3.5 3.5 0 0 1-.98-.14 3.6 3.6 0 0 0-1.58.28m2.61.6c3.4 1.43 2.4 7.18-1.25 7.18-4.14 0-4.86-5.74-.89-7.18.56-.2 1.02-.38 1.05-.4.02-.02.51.17 1.1.4m-300.3 1.92a8.6 8.6 0 0 0 1.83 0c.45-.07 0-.13-1-.13s-1.38.06-.83.13m173.28 2.43c-1.01 1.02-1.13 1.22-.46.77 1.08-.73 2.52-2.22 2.11-2.18-.15.01-.9.65-1.65 1.4m43.68.48c-4.28 1.49-8.67 5.76-8.67 8.44 0 .27-.12.62-.28.78-.15.16-.35.9-.44 1.66l-.41 3.02-.24 1.64-2.42.87c-4.53 1.62-6.87 3.98-6.87 6.92 0 6.2 10.32 8.47 17.85 3.92 2.13-1.28 2.75-1.4 5.08-.98 2.7.48 8.46-3.62 10.28-7.32 1.31-2.67 1.9-9.73.85-10.38-.15-.09-.27-.42-.27-.74 0-.6-.83-2.24-1.88-3.73-.69-.96-3.94-3.27-4.63-3.27-.25 0-.54-.13-.64-.3-.1-.17-.58-.3-1.06-.3-.49 0-.97-.14-1.07-.3-.24-.4-3.99-.34-5.18.07m-149.16.36c-24.21 3.31-43.56 21.23-50.4 46.66-.62 2.33-.77 4.35-.31 4.35.15 0 .34-.58.43-1.3.19-1.58.48-2.92.8-3.73.14-.33.56-1.63.95-2.89.38-1.25.8-2.41.95-2.57.13-.16.25-.47.25-.69 0-1.86 6.95-14.23 9.62-17.1.4-.43.73-.9.73-1.03 0-.45 8.24-8.58 9.78-9.66.85-.58 1.92-1.37 2.4-1.75.46-.37.97-.68 1.12-.68.15 0 .54-.24.87-.54 1.35-1.21 10.11-5.55 11.22-5.55.25 0 .52-.12.61-.27.1-.15.55-.34 1-.43.47-.1 1.4-.32 2.07-.52 4.47-1.3 7.64-1.66 14.3-1.65 10.9 0 12.33.43 12.33 3.62 0 1.98.4 2.85.73 1.6.52-1.94.03-4.22-1.03-4.78-2.2-1.19-13.04-1.82-18.42-1.09m156.88 1.41c7.2 3.69 9.1 14.25 3.53 19.59-3.14 3-8.02 4.25-10.43 2.67-.73-.48-1.25-.18-1.27.72-.04 2.62-10.19 4.8-14.32 3.06-3.52-1.47-4.57-5.03-2.27-7.71 1.04-1.22 3.17-2.52 4.12-2.52.3 0 .64-.14.75-.3.1-.17 1.51-.32 3.14-.32 2.89-.01 2.93-.02 2.29-.56a5.39 5.39 0 0 1-1.93-4.36c0-1.75.15-2.3 1.33-4.81.72-1.55 4.14-5.18 4.88-5.18.27 0 .49-.13.49-.3 0-.17.24-.3.54-.3.3 0 .68-.13.84-.29.97-.95 5.99-.58 8.31.61m-75.45-.7c0 .74 6.08 2.72 9.12 2.97 2.42.2 1.55-.37-1.2-.78a24.9 24.9 0 0 1-2.9-.6 22.7 22.7 0 0 0-1.67-.42 10.8 10.8 0 0 1-1.8-.74c-1.52-.75-1.55-.75-1.55-.44m20.4.86c-.76.4-1.65.8-1.98.91-.4.14-.48.26-.21.35.5.19 2-.41 3.4-1.34 1.35-.9.58-.85-1.21.08m48.74 1.36a4.51 4.51 0 0 0-3.6 4.92c.41 4.82 7.1 6.28 9.05 1.99 1.76-3.87-1.37-7.82-5.45-6.9m-54.07.28c-.47.2-.32.27.69.29.7 0 1.29-.12 1.29-.29 0-.36-1.13-.36-1.98 0m57.7 1.18c1.21 1 2.15 3.48 1.55 4.08-.19.19-.34.57-.34.85 0 .78-2.7 2.72-3.77 2.72-3.25 0-5-5.33-2.48-7.51 1.59-1.37 3.48-1.42 5.03-.14m68.32 16.2c-.15.24.07.28.72.14 4.3-.94 8.3 4.88 6.27 9.15-1.1 2.3-2.35 2.97-5.19 2.75l-2.51-.2-2.07 1.87c-7.79 7-14.5 7.62-22.47 2.06l-2.28-1.6-1.44 1.05c-5.74 4.13-11.92-4.47-6.58-9.16 1.52-1.33 4.84-2.82 5.92-2.67.73.11.8.05.56-.4-.5-.94-.85-.94-2.59.01-.93.51-1.9.93-2.15.93-.84 0-3.89 3.4-4.3 4.8-1.62 5.48 4.33 10.53 8.86 7.52 1.85-1.23 2.15-1.2 4.05.46.7.6 1.93 1.42 2.74 1.8l2 .98c.3.15.85.27 1.24.27.38 0 .85.15 1.03.33.57.58 8.01-.04 8.01-.66 0-.15.27-.28.6-.28 1.02 0 4.71-2.41 7.07-4.6 1.7-1.6 2.37-2.04 2.83-1.9 7.54 2.3 11.3-8.46 4.33-12.34-1.26-.7-4.28-.9-4.65-.3m-28.44 4.6c0 .65 2.67 3.25 4.68 4.55 1.87 1.21 2.32 1.38 2.32.86 0-.17-.28-.3-.61-.3-.34 0-.61-.14-.61-.3 0-.17-.17-.31-.38-.31s-.78-.34-1.27-.76a3.73 3.73 0 0 0-1.12-.76c-.13 0-.87-.77-1.63-1.7-.76-.94-1.38-1.52-1.38-1.28m-131.36 21.24c-.76.84-1.4 3.3-1.72 6.7l-1.04 10.5c-.1 1-.3 1.96-.46 2.12-.15.16-.28.8-.28 1.42 0 .63-.14 1.23-.3 1.33-.17.1-.3.58-.3 1.07 0 .48-.15.96-.31 1.06-.17.1-.3.52-.3.92s-.14.8-.31.9c-.17.11-.3.46-.3.79s-.14.59-.31.59c-.17 0-.3.21-.3.47 0 1.14-2.97 4.75-5.06 6.16-.32.22.04.08.79-.3 5.72-2.93 8.58-11.32 9.32-27.38.36-7.87 2.22-7.8 8.74.28 8.56 10.6 17.52 15.86 25.69 15.06 2.12-.2 2.94.05 3.45 1.06 2.96 5.84 12.3 14.09 15.95 14.09.24 0 .51.11.6.26.53.86 9.5.44 11.9-.56.33-.14 1.37-.47 2.3-.75.92-.27 2.35-.85 3.19-1.28 2.9-1.52 3.77-1.94 4.05-1.94.15 0 .35-.24.42-.53.39-1.45 14.75-1.77 15.63-.35.1.15.5.27.92.27.4 0 .98.13 1.27.28.3.16 1.08.51 1.75.8 6.99 2.96 9.16 5.42 4.87 5.52-1.17.02-2.65.2-3.27.38l-2.14.59c-2.47.63-9.24 4.35-9.6 5.27-.06.14-.3.25-.52.25-.5 0-7.57 6.95-8.84 8.68-1.66 2.27-3.35 3.25-3.94 2.28-.1-.16-.72-.3-1.37-.3-.65 0-1.27-.14-1.37-.3-.42-.69-5.05-.36-6.08.42-1.18.9-1.91 2.84-1.41 3.77.18.35.33.99.33 1.42 0 .43.14.78.31.78.17 0 .3.2.3.44s.3.97.66 1.6a144 144 0 0 1 1.27 2.3c.34.62.73 1.14.87 1.14s.25.15.25.33c0 .18.28.73.63 1.22 1 1.4.7 2.2-.94 2.51-2.3.44-7.72.15-8.35-.44-.16-.15-.74-.27-1.28-.27s-1.07-.14-1.17-.31c-.1-.17-.46-.3-.79-.3s-.83-.12-1.12-.27c-.29-.15-.87-.4-1.29-.57a48.4 48.4 0 0 1-6.3-3.18 9.1 9.1 0 0 0-1.43-.85c-.46 0-3.6-2.4-7.7-5.86-1.55-1.3-2.95-2.36-3.12-2.36a.31.31 0 0 1-.32-.3c0-.7-1.13-.25-1.65.64-1.07 1.8-1.51 4.58-1.89 11.76-.1 2.05-.28 3.73-.39 3.73-.79 0-6.09-6.53-6.98-8.6-.28-.63-.6-1.15-.73-1.15s-.24-.27-.24-.6c0-.34-.13-.61-.3-.61-.17 0-.3-.21-.3-.46s-.13-.7-.27-1c-.78-1.52-1.56-4.01-1.56-4.97 0-.42-.13-.89-.28-1.05-.47-.49-.7-3.65-.77-10.58l-.08-6.65-1.11-1.12c-2.8-2.79-6.76-.21-8.37 5.43l-.67 2.33c-.2.7-.3 1.44-.21 1.67.08.23 0 .68-.16 1.01-.17.33-.34 2.52-.37 4.87-.12 8.26-.57 9.1-7.36 13.79-1.03.71-2 1.3-2.17 1.3-.16 0-.46.2-.66.43-.2.24-1.69 1.08-3.3 1.86l-3.48 1.69c-.3.15-.8.28-1.13.28-.32 0-.67.12-.76.27-.36.59-6.76 1.17-7.27.66-.18-.18-.64-.33-1.03-.33-.38 0-.7-.13-.7-.3 0-.17-.2-.3-.44-.3-.86 0-3.1-2.71-3.6-4.36-1.06-3.46-1.22-4.44-1.17-7.52.06-4.1-.03-4.23-2.07-2.8a71.1 71.1 0 0 1-2.12 1.43c-.27.17-.56.39-.64.48-.46.53-4.25 2.89-5.74 3.57-6.46 2.98-10.17 2.64-12.5-1.16-1.17-1.9-1.55-1.9-4.03-.07a68.06 68.06 0 0 1-11.52 7.07c-3.82 1.91-4.33 2.14-4.89 2.14-.3 0-.64.13-.75.3-.1.17-.5.3-.87.3s-.8.13-.97.28c-.16.15-.9.37-1.66.48-7.06 1.1-10.18-.83-10.14-6.24.03-2.98.36-4.17 2.54-8.97.76-1.68.9-2.52.5-2.86-.4-.32-1.95-.1-2.2.3-.1.15-.44.27-.76.27s-.6.14-.6.3c0 .18-.16.31-.37.31-.33 0-2.35.94-7.95 3.69a5.4 5.4 0 0 1-1.75.57c-.31 0-.58.14-.58.3 0 .18-.33.31-.74.31-.4 0-.83.14-.93.3-.1.17-.51.31-.91.31s-.81.14-.92.3c-.1.17-.65.31-1.21.31s-1.12.14-1.22.3c-.1.18-1.52.3-3.2.3-5.29 0-7.12-1.7-6.88-6.38.16-3.1.46-4.87.83-4.87.15 0 .27-.28.27-.62 0-.33.12-.85.27-1.14.15-.29.58-1.21.95-2.05l1.02-2.28a5 5 0 0 1 .5-.92c.16-.15.95-1.62 2.55-4.71.52-1 1.05-1.88 1.18-1.93.12-.06.22-.5.22-1 0-.91-2.08-1.38-2.58-.57-.1.16-.59.3-1.07.3-.48 0-.96.14-1.06.3-.1.17-.64.3-1.18.3-.54 0-1.12.13-1.27.28-.73.69-8 .96-11.63.44l-1.9-.28-1.13 2.15c-.63 1.17-1.1 2.32-1.05 2.54.05.28-.19.37-.77.3-.93-.1-1.5-3.53-.72-4.31.17-.18.32-.64.32-1.02 0-.4.12-.95.27-1.24a72 72 0 0 0 .99-2.05c.4-.83.82-1.57.94-1.62.13-.06.23-.24.23-.4 0-.6 1.8-3.03 4.77-6.47 3.92-4.54 12.05-10.38 15.72-11.3.43-.11.86-.41.95-.66.27-.71-1-.3-4.54 1.42-13.17 6.44-25.46 25.05-19.12 28.96 1.39.86 5.94.66 10.86-.48 1.82-.43 3.57-.77 3.88-.77.73 0 .78 1.27.07 1.86-5.36 4.45-11.37 14.57-11.37 19.16 0 5.58 7.38 8.98 15.22 7.02 5.7-1.43 6.54-1.21 5.32 1.38-3.36 7.2-2.54 11.38 2.75 13.97 4.73 2.32 14.04 2.52 22.22.48a70.16 70.16 0 0 0 11.72-4 68.15 68.15 0 0 0 8.67-4.56c2.02-1.37 5.28-3.3 5.94-3.5.8-.26.8-.01-.28 4.07-4.59 17.48 8.48 23.01 27.33 11.56 3.48-2.11 3.95-1.5 2.74 3.55-3.33 13.93 7.84 16.77 23.17 5.9 7.88-5.6 7.82-5.6 8.24 1.1.37 6 .93 7.45 3.03 7.87 4.12.82 14.4-4.55 21.1-11.03 2.84-2.75 2.76-3.01-1.22-4.01-12.36-3.1-21.36-14.59-24-30.66-.51-3.13-.58-10.6-.12-12.9l.67-3.3c1.97-9.59 8.52-12.75 8.18-3.96-.53 13.87-.08 19.84 1.92 25.72 2.44 7.16 6.81 12.85 11.8 15.35 3.37 1.7 3.53 1.28 1.97-5-1.14-4.58-1.61-12.22-.74-11.96.21.07 1.48 2.32 2.82 5a80 80 0 0 0 3.17 5.92c8.39 11.81 19.93 20.07 28.06 20.07 3.73 0 4.59-1.79 3.75-7.77-2.03-14.43.76-25.08 9.32-35.61 5.48-6.73 14.37-11.9 22.06-12.8 3.9-.46 4.6-1.28 2.51-2.96-8.6-6.9-19.71-8.78-28.17-4.78-1.06.5-1.99.9-2.08.9-.08 0-1.07.43-2.19.95-5.08 2.35-6.94 2.8-11.2 2.66-7.6-.24-12.04-5.24-13.84-15.6-.31-1.78-.57-2.49-1.03-2.78-.6-.38-9.1-.82-8.91-.46.7 1.28.88 1.92.7 2.6l-.2.8-2.95-.13c-9.6-.44-16.51-4.65-24.16-14.73-4.64-6.1-6.76-7.61-8.33-5.88m-44.74 4.12c-.59.6-1.07 1.34-1.07 1.66 0 .32-.14.66-.3.77-.18.1-.31.5-.31.87s-.13.8-.28.97c-.15.16-.34.83-.43 1.5-.32 2.3-.9 5.18-1.76 8.53-.17.67-.39 1.6-.48 2.06-.09.46-.29.91-.44 1-.14.1-.27.45-.27.78a8.6 8.6 0 0 1-.76 2.28 12.6 12.6 0 0 0-.76 1.93c0 1.54-6.8 9.76-8.07 9.76-.25 0-.45.13-.45.3 0 .17-.27.3-.6.3-.32 0-.67.14-.77.3-.23.39-5.14.42-5.86.05-.3-.15-.94-.46-1.45-.68-1.32-.6-5.07-4.47-5.78-5.98-.34-.7-.71-1.29-.84-1.3-.12 0-.23-.27-.23-.6 0-.34-.13-.61-.3-.61-.17 0-.3-.21-.3-.46s-.13-.7-.27-1c-.15-.28-.44-.93-.65-1.43-.2-.5-.5-1.16-.64-1.45a3.3 3.3 0 0 1-.27-1.27c0-.41-.14-.83-.3-.94-.17-.1-.31-.58-.31-1.06 0-.49-.14-.96-.3-1.07-.17-.1-.3-.72-.3-1.37 0-.65-.15-1.26-.31-1.37-.17-.1-.3-.92-.3-1.82s-.14-1.73-.31-1.83c-.17-.1-.3-.86-.3-1.68s-.14-1.57-.31-1.67c-.17-.1-.3-.55-.3-1 0-2.34-1.69-4.94-3.21-4.94-1.38 0-6.53 4.99-6.54 6.32a4 4 0 0 1-.78 1.14c-.44.5-1.01 1.3-1.29 1.75-.27.46-.6.84-.73.84s-.24.17-.24.38c0 .2-.39.8-.85 1.3a18.3 18.3 0 0 0-1.37 1.67c-.97 1.4-6.92 7.28-8.37 8.27-.79.53-1.5 1.05-1.59 1.15-.08.09-.56.36-1.06.58l-1.44.69c-1.91.97-3.31-3.29-1.77-5.36.23-.3.44-.97.91-2.81.29-1.12-.43-1.62-1.43-1-.47.29-.45.3.15.15.76-.21.92.35.39 1.3-1.43 2.54-1.93 6.84-.91 7.93 2.06 2.2 9.18-2.27 14.91-9.37 2.38-2.95 3.71-4.7 5.79-7.62 6.46-9.1 7.73-8.8 9.59 2.28 2.57 15.32 7.3 23.32 14.85 25.15 6.67 1.61 14.75-6.86 17.87-18.75l.69-2.6c.24-.91.6-2.56.8-3.64 1.17-6.23 1.52-7.5 2.37-8.41 1.83-1.98 4.07.33 8.15 8.4 3.81 7.57 5.16 9.87 7.95 13.6 3.5 4.65 8.47 8.07 11.63 7.99l1.13-.03-1.07-.3c-3.52-1.02-8.04-4.67-11.68-9.46-.6-.8-1.1-1.56-1.1-1.7 0-.14-.28-.5-.61-.81-.34-.3-.61-.66-.61-.8s-.73-1.44-1.61-2.91a89.2 89.2 0 0 1-2.96-5.42 41.75 41.75 0 0 0-1.52-2.9c-.09-.08-.49-.8-.89-1.6-.4-.79-.84-1.44-.99-1.44-.14 0-.26-.17-.26-.38-.02-.95-3.56-4.18-4.58-4.18-.15 0-.75.48-1.34 1.07m248.55.3a.46.46 0 0 0 .91 0c0-.26-.2-.46-.46-.46s-.45.2-.45.46M82.72 189.8c-.08.42-.02.84.12.93.15.09.26-.26.26-.77 0-1.13-.18-1.2-.38-.16m130.22 9.1c.76.65 1.76 1.2 4.32 2.4.5.22.8.2 1.16-.1.41-.34.26-.46-1.13-.95-.89-.32-2.31-.91-3.17-1.33-1.95-.95-2.27-.96-1.18-.02m141.18 15.78c-3.04 4.52-2.9 5.2 1.13 5.4 1.76.09 3.38.27 3.6.41.72.47 1.88-.05 1.88-.84 0-1.13-4.47-6.27-5.45-6.27-.16 0-.68.59-1.16 1.3m3.37 1.49c2.92 2.62 2.98 3.5.21 3.12-2.74-.36-4.08-2.17-3.05-4.1.48-.9.95-.73 2.84.98m-185.5-.05c-.62.2-.65.25-.15.27a2 2 0 0 0 1.07-.27c.53-.34.16-.34-.92 0m-127.75 2.52a74.3 74.3 0 0 0-3.37 3.27l-1.6 1.67.03 2.29.03 2.28.44-1.52c.81-2.8 1.46-3.93 3.51-6.06 2.35-2.45 2.76-2.42 3.16.2l.24 1.6.24-2.29c.39-3.66 0-3.86-2.68-1.44m245.56 8.41c.25.18 1.07.4 1.83.5 2.29.3 3.75 1.02 5.77 2.8 1.47 1.3 4.17 4.63 4.52 5.56.09.25.25.53.34.61.1.08.52.81.92 1.62.92 1.82.65 2.45-1.08 2.57-2.06.14-2.83.4-2.1.69.74.3 3.81.02 4.34-.4 1.76-1.38-4.95-11.37-9.06-13.47-1.18-.61-6.31-1.05-5.48-.48m68.8-.03c0 .17.56.4 1.24.52 1.8.3 2.94 1.64 5.1 6 2.7 5.47 2.53 6.6-.99 6.62-2.28.02-2.03.3.56.62 2.74.34 3.22.18 3.22-1.09 0-3-4.02-11.08-6.04-12.12-1.14-.6-3.09-.94-3.09-.55m-71.69.37c-.23.37.97.37 1.83 0 .49-.21.39-.27-.52-.29-.62 0-1.2.12-1.31.29m28.41 1.32c-.89.72-2.27 1.7-3.07 2.16-2.13 1.24-2.17 1.46-.83 4.11 3.5 6.94 3.99 14.07 1.4 20.39-.94 2.3-.75 2.76 1.13 2.76 1.43 0 3.85-.83 3.88-1.33.02-.19.07-1.73.12-3.42.14-4.77 2.3-11.17 5-14.72 1.6-2.12 1.57-2.38-.3-4.46a31.33 31.33 0 0 1-2.73-3.58c-2.44-3.86-2.27-3.8-4.6-1.91m29.05 43.34a6.8 6.8 0 0 0 1.67 0c.46-.07.09-.13-.84-.13-.92 0-1.3.06-.83.13" fill="#1076b2"/>
    <path d="M336.99 6.09c0 .17.2.3.45.3s.46-.13.46-.3c0-.17-.2-.3-.46-.3s-.45.13-.45.3m4.87 1.06c0 .28.14.46.32.4s.33-.24.33-.4c0-.16-.15-.34-.33-.4-.18-.06-.32.12-.32.4m-14 .61c0 .25.13.46.3.46.17 0 .3-.2.3-.46 0-.25-.13-.45-.3-.45-.17 0-.3.2-.3.45m22.88 3.53c.06.18.24.32.4.32.16 0 .34-.14.4-.32s-.12-.33-.4-.33-.46.15-.4.33m-111.1.6c.05.18.23.33.39.33s.34-.15.4-.33c.06-.18-.12-.32-.4-.32s-.46.14-.4.32m-15.89 3.03c0 .16.21.3.46.3s.46-.14.46-.3c0-.17-.2-.3-.46-.3s-.46.13-.46.3m132.42.15c0 .25.14.45.3.45.18 0 .31-.2.31-.45s-.13-.46-.3-.46c-.17 0-.3.2-.3.46m-134.25 1.06c0 .17.2.3.45.3.26 0 .46-.13.46-.3 0-.16-.2-.3-.46-.3-.25 0-.45.14-.45.3m105.93 1.68c0 .25.13.46.28.46.14 0 .35-.21.44-.46.11-.28 0-.46-.27-.46-.25 0-.45.2-.45.46m-108.37.15c0 .17.2.3.46.3s.46-.13.46-.3c0-.17-.21-.3-.46-.3s-.46.13-.46.3m124 1.29c-.1.19.65 1.05 1.75 2 3.17 2.73 7.63 7.35 9.45 9.8 2.32 3.13 3.61 5.08 3.61 5.43 0 .17.1.35.24.4.22.1 2.62 4.88 3.11 6.2.13.33.37.95.55 1.36.18.42.39 1.1.47 1.53 1.06 5.2 3.15 7.4 2.83 2.97-.21-3-.5-4.77-.83-4.97-.15-.1-.28-.5-.28-.9s-.13-.8-.3-.9c-.17-.11-.3-.41-.3-.68 0-3.1-7.55-13.63-12.94-18.08-2.79-2.3-7.02-4.7-7.35-4.16M242.2 20.9c-.35.35-.22.71.26.71a.46.46 0 0 0 .45-.45c0-.48-.36-.6-.7-.26m89.05 2.6c.15.45.85.7.85.3 0-.16-.22-.38-.49-.48-.3-.11-.43-.05-.36.18m-103.41 1.25c-6.05 3.64-12.49 11.7-15.47 19.39l-.54 1.37c-.13.34-.4 1.16-.6 1.83-.2.67-.49 1.45-.63 1.74-.15.3-.27.85-.27 1.24 0 .38-.12.83-.27.99-.52.55-1.31 8.23-.98 9.49.24.9 1.03 1.2 2.3.87.61-.15.71-.43.91-2.53.38-3.89.7-6.24 1.08-7.7.19-.75.42-1.74.51-2.2.1-.47.3-.92.44-1.01.15-.1.27-.44.27-.76 0-.33.14-.87.3-1.2l.61-1.21c.17-.33.31-.81.31-1.07 0-.25.14-.46.3-.46.17 0 .3-.18.3-.41 0-.5 1.9-4.26 2.21-4.4.13-.06.23-.24.23-.4 0-.35 3.72-6.18 4.25-6.66.1-.08.54-.65 1-1.27.46-.61 1-1.3 1.22-1.52.21-.22 1-1.16 1.75-2.08a16 16 0 0 1 1.6-1.78c.13-.05.23-.22.23-.38 0-.36-.32-.33-1.06.12m-16.6 1.6c0 .55.66.45.85-.11.06-.2-.1-.36-.37-.36s-.48.21-.48.48m70.03-.26c.01.32.77 1.3 1.01 1.3.35 0 .2-.64-.24-1.09-.48-.48-.79-.56-.77-.2m-41.5 1.48c-.25.25.03.72.41.72.16 0 .29-.2.29-.46 0-.47-.36-.6-.7-.26m93.85.9c0 .26.16.43.36.36.56-.19.66-.84.12-.84a.48.48 0 0 0-.48.48m-94.48 1.19c.1.25.3.46.45.46.15 0 .27-.2.27-.46 0-.25-.2-.46-.45-.46-.27 0-.38.18-.27.46m45.66 2.44c-.1.27 0 .45.27.45.5 0 .6-.47.18-.74-.15-.1-.35.04-.45.29m85.65.6c0 .26.14.46.3.46.17 0 .31-.2.31-.45 0-.26-.14-.46-.3-.46-.17 0-.3.2-.3.46m-97.14 6.12c-5.3 6.15-10 9.96-16.48 13.35-1.92 1-1.9 1.1 1.26 5.33 7.64 10.26 26.33 24.32 38.85 29.24 12.91 5.08 18.9 4.26 18.84-2.58-.02-2.9-.5-4.1-3.27-8.14-2.84-4.15-1.59-4.65 5.14-2.07 9.24 3.55 10.45 3.59 10.62.35.11-2 .27-2.2 1.42-1.87 4 1.15 15.18 13.43 20.02 21.98 2.46 4.36 1.65.05-1.02-5.4-2.4-4.9-6.44-9.84-11.58-14.16-6.44-5.4-6.03-5.78 6.3-5.78 5.79 0 6.99-.07 7.13-.44.62-1.6-8-9.45-12.6-11.45-.54-.24-.98-.54-.98-.66 0-.13-.21-.23-.46-.23-.26 0-.7-.13-1-.3-1.29-.71-3.27-1.53-3.72-1.53-.27 0-.62-.1-.78-.24-.43-.37-2.15-.87-4.85-1.4l-4.11-.84c-2.25-.47-12.85-.49-14.61-.03-.76.2-2.3.57-3.45.84a26.9 26.9 0 0 0-3.45 1.08c-3.21 1.38-3.6.34-1.51-3.98 1.56-3.21 1.5-3.65-.42-3.65-.84 0-1.52.14-1.52.3 0 .17-.34.31-.75.31s-.82.14-.93.3c-.1.17-.45.3-.78.3s-.59.15-.59.31c0 .17-.27.3-.6.3-.34 0-.61.14-.61.31 0 .17-.21.3-.46.3-.43 0-1.63.56-1.98.92-.08.09-.84.5-1.67.91a69.4 69.4 0 0 0-4.2 2.36c-1.47.88-2.75 1.6-2.85 1.6-.09 0-.53.26-.97.57-.45.32-1.33.87-1.95 1.22l-2.29 1.3c-5.42 3.12-6.72 3.24-5.08.5a53.75 53.75 0 0 0 3.5-7.4c.2-.66.48-1.49.61-1.82.4-1.03.87-3.53 1.38-7.38.23-1.78-.4-5.25-.94-5.25-.19 0-1.36 1.18-2.6 2.62M372.3 37c0 .25.13.45.3.45.17 0 .3-.2.3-.45s-.13-.46-.3-.46c-.17 0-.3.2-.3.46m-134.86.3c0 .25.14.46.3.46.17 0 .31-.2.31-.46s-.14-.46-.3-.46c-.17 0-.3.21-.3.46m-33.8.91c0 .26.14.46.3.46.17 0 .31-.2.31-.46s-.14-.45-.3-.45c-.17 0-.3.2-.3.45m55.47.16c-.21.33-.3.6-.2.6.39 0 1.34-.65 1.34-.92 0-.52-.75-.31-1.14.32m31.95-.28c.06.18.24.32.4.32.15 0 .33-.14.4-.32.05-.18-.13-.33-.4-.33s-.46.15-.4.33m18.81-.16c0 .23.82 1.05 1.05 1.05.1 0 0-.28-.2-.61-.36-.57-.85-.83-.85-.44m26.8.59c0 .25.13.46.3.46.16 0 .3-.21.3-.46s-.14-.46-.3-.46c-.17 0-.3.2-.3.46m-23.45 3.2c0 .16.2.3.46.3.25 0 .45-.14.45-.3 0-.17-.2-.31-.45-.31s-.46.14-.46.3m8.53.61c0 .17.27.3.6.3.34 0 .61-.13.61-.3 0-.16-.27-.3-.6-.3-.34 0-.61.14-.61.3m14.07 1.37c-.5.57-.48.76.08.76.25 0 .46-.05.46-.12s.08-.35.18-.61c.23-.6-.2-.61-.72-.03m-135.23 1.53c0 .25.14.45.3.45.17 0 .3-.2.3-.45 0-.26-.13-.46-.3-.46-.16 0-.3.2-.3.46m-.61 1.82c0 .25.14.46.3.46.17 0 .3-.2.3-.46s-.13-.46-.3-.46c-.16 0-.3.21-.3.46m39.88 1.22c0 .25.2.46.45.46a.46.46 0 0 0 .46-.46.46.46 0 0 0-.91 0M375.24 48c-.35.35-.22.7.25.7a.46.46 0 0 0 .46-.45c0-.48-.36-.6-.7-.25m-176.47 3.9c0 .28.15.46.33.4.18-.06.33-.24.33-.4 0-.16-.15-.34-.33-.4-.18-.06-.33.12-.33.4m177.16 2.67c-.28 1.5-.13 5.1.2 5.1.32 0 .42-.6.42-2.6 0-1.94-.42-3.62-.62-2.5m-177.77 2.5c0 .86.45 1.03.73.29.3-.76.22-1.04-.27-1.04-.28 0-.46.28-.46.76m32.88.46c0 .34.12.85.27 1.14l1.6 3.27a17.9 17.9 0 0 0 1.55 2.84c.13.06.23.24.23.4 0 .28 1.3 2.27 2.43 3.75 1.05 1.38 3.2 3.22 3.64 3.14 1.2-.23.59-2.28-1.27-4.25a72.93 72.93 0 0 1-5.1-6.48c-1.27-2.64-3.35-5-3.35-3.81m-36.53 7.27c0 .15.2.35.46.45.28.1.45 0 .45-.28 0-.24-.2-.44-.45-.44s-.46.12-.46.27m180.59.4c.19.56.84.65.84.11 0-.26-.22-.48-.48-.48s-.43.16-.36.36m-185.76 2.08c0 .16.2.3.45.3s.46-.14.46-.3c0-.17-.2-.3-.46-.3s-.45.13-.45.3m-1.22.6c0 .17.2.3.45.3.26 0 .46-.13.46-.3 0-.16-.2-.3-.46-.3-.25 0-.45.14-.45.3m-1.22.61c0 .17.2.3.46.3s.45-.13.45-.3c0-.16-.2-.3-.45-.3s-.46.14-.46.3m186.51 4.16c-.24.24.04.71.42.71.16 0 .29-.2.29-.45 0-.47-.36-.6-.7-.26m-174.95 1.52a63.94 63.94 0 0 0-7.13 3.2c-6.58 3.31-17.22 12.46-17.22 14.8 0 .16-.21.47-.47.68-.25.21-.69.88-.97 1.48s-.59 1.17-.68 1.26a4.32 4.32 0 0 0-.93 1.97c0 .25-.14.46-.3.46-.17 0-.3.27-.3.6 0 .32-.13.66-.28.75-.15.1-.36.61-.47 1.16l-.51 2.51c-.18.84-.4 2.54-.48 3.79l-.15 2.26-4.76 4.92c-4.93 5.09-7.06 7.5-7.06 8 0 .16-.2.46-.45.66-.24.2-.64.74-.87 1.18l-1.23 2.33c-1.67 3.16-3.44 10.2-2.56 10.2.45 0 .9-.63 2.73-3.8a111.3 111.3 0 0 1 16.31-22.18c3.74-3.96 3.96-4.33 2.37-4.07-1.48.24-1.52-.04-.31-2.35 5.92-11.37 14.98-20.61 25.18-25.7 2.02-1.02 2.84-2.6 1.94-3.78-.41-.54-.61-.59-1.4-.33m174.33.3c-.24.24.04.72.42.72.16 0 .29-.2.29-.46 0-.47-.36-.6-.7-.26m-203.8 7.9c-.44.48-.48.73-.1.73.26 0 .74-.91.57-1.07-.05-.05-.25.1-.46.33m200.22 1.5c0 .26.14.46.3.46.18 0 .31-.2.31-.45s-.13-.46-.3-.46c-.17 0-.3.2-.3.46m9.43 3.07c0 .26.16.42.36.36.57-.2.66-.85.12-.85a.48.48 0 0 0-.48.49m1.83.58c0 .25.13.46.3.46.17 0 .3-.21.3-.46s-.13-.46-.3-.46c-.17 0-.3.2-.3.46m-18.54 4.68c-.7.46 2.63 2.38 6.6 3.8 6.6 2.37 14.37 3.54 14.37 2.16 0-.5-1.67-1.36-2.61-1.36-.39 0-.77-.12-.87-.27-.09-.15-.64-.35-1.23-.45l-2.14-.38c-.59-.1-1.14-.3-1.23-.45-.1-.15-.57-.27-1.05-.27-.48 0-.95-.13-1.04-.27-.1-.15-.62-.35-1.16-.43a22.5 22.5 0 0 1-2.21-.51c-.67-.2-1.56-.43-1.98-.51a8.66 8.66 0 0 1-1.37-.41c-.34-.15-1-.35-1.49-.45l-1.52-.33a1.6 1.6 0 0 0-1.07.13m-144.17 15.14c-1.35.3-3.06.85-3.33 1.08a1.5 1.5 0 0 1-.85.26c-.3 0-.85.15-1.23.35-1.45.75-1.75.86-2.29.86-.3 0-.68.12-.84.25-.16.14-1.32.58-2.57.97s-2.42.83-2.57.97a1.5 1.5 0 0 1-.85.25c-.3 0-.79.12-1.08.27-.29.15-.87.4-1.29.57-4.08 1.65-4.51 2.2-2.05 2.67 4.55.85 23.27-6.2 21.38-8.05-.4-.38-1.66-.61-2.43-.45m-63.1 1.5c-.38.43-.5 1.05-.2 1.05.42 0 1.1-.97.86-1.2-.15-.15-.44-.08-.65.15m238.89 2.73c0 .25.13.45.3.45.17 0 .3-.2.3-.45s-.13-.46-.3-.46c-.17 0-.3.2-.3.46m-1.22 3.65a.46.46 0 0 0 .91 0c0-.25-.2-.46-.45-.46s-.46.21-.46.46m-31.44 1.07c-.2.63-1.2 7.73-1.34 9.59-.12 1.45-.06 1.59 1.26 3 .76.81 1.38 1.6 1.38 1.73 0 .13.17.43.38.65.57.6 1.05 1.68 1.77 3.97.58 1.86.7 2.02 1.23 1.74.63-.34.85-2.52.28-2.88-.17-.1-.3-.65-.3-1.21 0-.57-.13-1.1-.28-1.2-.15-.1-.34-.68-.43-1.31-.1-.63-.32-1.76-.5-2.52l-1.22-4.8c-.16-.62-.38-1.54-.48-2.04-.1-.5-.3-1.2-.44-1.53-.13-.33-.45-1.3-.7-2.13-.26-.84-.53-1.32-.61-1.06m-296.11 4.56c0 .17.2.3.46.3s.45-.13.45-.3c0-.16-.2-.3-.45-.3s-.46.14-.46.3m3.04 1.07c0 .25.14.45.3.45.18 0 .31-.2.31-.45s-.13-.46-.3-.46c-.17 0-.3.2-.3.46m2.43 1.22c0 .25.14.45.3.45.17 0 .3-.2.3-.46 0-.25-.13-.45-.3-.45-.16 0-.3.2-.3.45m73.87-.25c-.35.35-.22.71.25.71.26 0 .46-.2.46-.46 0-.47-.36-.6-.7-.25m-110.64 1.99c.18.56.84.65.84.12 0-.27-.22-.48-.48-.48s-.43.16-.36.36m87.37 1.23c.07.21.3.38.53.38a.6.6 0 0 0 .53-.38c.08-.22-.14-.38-.53-.38-.4 0-.6.16-.53.38m16.22-.1c-.1.16-.03.38.14.48.36.22.91-.06.91-.47 0-.37-.82-.37-1.05 0m-20.2.61c.06.2.21.36.33.34.37-.03.3-.45-.1-.58-.2-.07-.3.04-.24.24m265.4.47c0 .25.14.46.3.46.18 0 .31-.2.31-.46s-.13-.45-.3-.45c-.17 0-.3.2-.3.45m-354 1.87c-.39.42-.64.83-.55.92.24.24 1.7-.9 1.72-1.34.01-.57-.36-.43-1.16.42m20.5.47c-4.5 1.18-8.65 2.74-8.93 3.37-.06.13-.26.23-.46.23-.83 0-5.25 3.93-6.86 6.09-.44.58-.86 1.13-.95 1.22-.15.14-.3.39-1.5 2.55-2.05 3.66-2.5 7.97-1 9.65 1.41 1.58 7.22 1.07 7.22-.63 0-.27-.47-.53-1.22-.68-2.98-.6-3.03-3.24-.16-8 1.8-3 3.48-4.91 5.9-6.73 8.09-6.08 18.04-6.45 28.1-1.03 3.9 2.11 3.73 1.1-.35-2.02a33.24 33.24 0 0 0-7.31-3.64c-1.85-.6-10.6-.87-12.48-.38m329.22.07c0 .27.22.49.48.49.54 0 .45-.66-.12-.85-.2-.06-.36.1-.36.36m-25.5.31c-3.97 1.44-3.26 7.18.89 7.18 3.64 0 4.64-5.75 1.24-7.17a7.42 7.42 0 0 0-1.1-.4c-.02.01-.48.2-1.03.4m24.47.12c-.1.17-.05.4.13.51.47.29.77-.1.38-.5-.21-.21-.38-.22-.51-.01m-298.51.35c0 .17.2.3.46.3.25 0 .45-.13.45-.3 0-.17-.2-.3-.45-.3-.26 0-.46.13-.46.3m-52 .57c-.78.67-.84.95-.2.95.24 0 .45-.13.45-.28 0-.16.21-.5.48-.76.67-.68.05-.6-.74.09m73.62 1.26c0 .16.2.3.46.3s.46-.14.46-.3c0-.17-.21-.3-.46-.3s-.46.13-.46.3m-19.78.55c0 .16.21.38.48.48.3.11.43.04.36-.18-.15-.45-.84-.7-.84-.3m18.57.06c0 .16.2.3.45.3s.46-.14.46-.3c0-.17-.2-.31-.46-.31s-.45.14-.45.3m-75.3 1.43c-.35.35-.21.7.26.7.25 0 .45-.12.45-.28 0-.38-.47-.66-.71-.42m57.94.25c0 .25.14.46.3.46.18 0 .31-.21.31-.46s-.13-.46-.3-.46c-.17 0-.3.2-.3.46m13.3.35c-.25.24.03.71.41.71.16 0 .29-.2.29-.45 0-.47-.36-.6-.7-.26m-12.7.87c0 .25.14.45.3.45.17 0 .31-.2.31-.45s-.14-.46-.3-.46c-.17 0-.3.2-.3.46m40.1.02c-.11.11-1.07.32-2.12.46-2.13.27-4.04.66-5.87 1.2-.67.19-1.6.42-2.06.5-.46.1-.92.3-1 .44-.1.15-.37.27-.62.27-1.5 0-12.17 5.72-12.56 6.73-.05.15-.26.27-.45.27-.2 0-.77.38-1.27.84-.5.46-1.4 1.2-1.98 1.63-1.06.79-1.8 1.46-4.72 4.2a65.97 65.97 0 0 0-6.26 7.03c-1.44 1.08-8.5 14.04-8.5 15.61 0 .22-.12.53-.25.69-.14.16-.57 1.32-.95 2.57s-.81 2.56-.95 2.9c-.81 2.01-1.09 5.02-.46 5.02 1.93 0 2.62-.92 6.54-8.61 13.19-25.92 29.73-37.06 55-37.06 2.03 0 4.08-.12 4.57-.27.48-.16 1.26-.37 1.72-.47 1.65-.36.79-2.96-1.12-3.36-2.45-.51-16.28-1-16.69-.6m-100.08.57c0 .27.22.48.48.48.54 0 .45-.65-.12-.84-.2-.07-.36.1-.36.36m249.17 3.32c-2.53 2.18-.78 7.51 2.47 7.51 1.08 0 3.77-1.94 3.77-2.72 0-.28.15-.66.34-.85.26-.26.24-.71-.08-1.77-.92-3.14-4.14-4.22-6.5-2.17m64.84 1.75-4.27.57c-29.94 4-31.86 4.49-37.25 9.6-7 6.64-8.77 14.5-5.86 25.88 1.16 4.53 5.09 9.45 9 11.26 5.64 2.61 9.65 2.8 24.22 1.1l4.11-.48c5.63-.65 15.81-2.24 18.72-2.92.75-.18 1.82-.4 2.36-.5.55-.08 1.07-.28 1.16-.43.1-.14.44-.27.77-.27s.83-.12 1.12-.27c.51-.26.95-.44 3.04-1.3.54-.22.99-.5.99-.63s.18-.23.4-.23c1.08 0 5.97-5.42 6.73-7.46 1.26-3.35 1.73-13.46.8-17.2-3.1-12.61-12.4-18.58-26.04-16.72m-317.05.9c0 .16.2.3.46.3s.45-.14.45-.3c0-.18-.2-.31-.45-.31s-.46.13-.46.3m351.5 4.16c-.43.42.2 2.42 1.3 4.06 1.62 2.46 2.75 4.87 5.74 12.31 2.5 6.18 3.81 8.57 3.28 5.92a88.1 88.1 0 0 1-.38-2.02c-.1-.55-.3-1.07-.44-1.16-.15-.1-.27-.56-.27-1.05 0-.48-.14-.96-.3-1.06-.17-.1-.31-.46-.31-.79s-.14-.86-.3-1.2l-.61-1.2a3.2 3.2 0 0 1-.3-1.2c0-.33-.14-.68-.31-.79-.17-.1-.3-.45-.3-.78s-.14-.59-.31-.59c-.17 0-.3-.2-.3-.46 0-.25-.13-.7-.28-.99-.15-.29-.59-1.21-.98-2.05a43.62 43.62 0 0 0-1.52-2.89c-.45-.75-1.16-1.99-1.58-2.74-.73-1.32-1.37-1.78-1.83-1.32m12.88 2.39c0 .25.14.45.3.45.17 0 .31-.2.31-.45s-.14-.46-.3-.46c-.17 0-.3.2-.3.46M69.7 153.27c0 .25.14.46.3.46.17 0 .31-.2.31-.46 0-.25-.14-.45-.3-.45-.17 0-.3.2-.3.45m273.54.76c1.4 1.16 1.58 1.22 3.54 1.22 1.17 0 2.06.13 2.06.3 0 .17.16.31.35.31 1.75 0 3.6 3.11 3.6 6.04 0 5.14-3.17 7.73-7.76 6.33-.46-.14-1.14.3-2.83 1.9-2.36 2.19-6.05 4.6-7.06 4.6-.34 0-.6.13-.6.27 0 .63-7.45 1.25-8.02.67-.18-.18-.65-.33-1.03-.33-.4 0-.95-.12-1.24-.27-.29-.15-1.19-.59-2-.97-.81-.4-2.04-1.2-2.74-1.81-1.9-1.65-2.2-1.69-4.05-.46-4.53 3.01-10.48-2.04-8.86-7.53.41-1.39 3.46-4.79 4.3-4.79.68 0 3.8-1.78 4.82-2.75 2.74-2.62 4.62-2.6 9.22.1 3.85 2.24 6.76 1.85 10.37-1.4 3.54-3.2 5.4-3.52 7.93-1.43m-268.68-.46c0 .27.18.38.46.27.25-.1.38-.3.28-.45-.26-.43-.74-.32-.74.18m-57.53 1.53c0 .42.13.76.3.76.17 0 .3-.34.3-.76s-.13-.76-.3-.76c-.17 0-.3.34-.3.76m372 6.09c0 .25.13.45.3.45.16 0 .3-.2.3-.45s-.14-.46-.3-.46c-.17 0-.3.2-.3.46M9.47 162.44c-.22.25-.32.55-.21.66.24.24 1.15-.3 1.32-.8.17-.5-.62-.41-1.1.14m380.67 3.36c-.35.35-.22.71.25.71.25 0 .46-.2.46-.45 0-.48-.36-.6-.71-.26M7.3 167.45c0 1.59.72 1.48.85-.12.07-.85-.02-1.12-.38-1.12-.35 0-.47.32-.47 1.24m383.25 2.26c0 .25.2.46.46.46a.46.46 0 0 0 .46-.46c0-.25-.2-.46-.46-.46s-.46.21-.46.46M54.8 174.13c0 .16.2.3.45.3s.46-.14.46-.3c0-.17-.2-.31-.46-.31s-.45.14-.45.3m-4.68 2.65c-.34.34-.21.7.26.7.25 0 .46-.13.46-.28 0-.39-.48-.66-.72-.42m-30.13 1.82c-.35.35-.22.71.25.71.26 0 .46-.2.46-.46 0-.47-.36-.6-.71-.25m4.86 1.23c-.34.34-.2.7.26.7.25 0 .46-.13.46-.29 0-.38-.48-.66-.72-.41m16.25.22c0 .26.21.48.48.48.53 0 .44-.66-.12-.85-.2-.06-.36.1-.36.37m349.62.17c-.23.36.06.92.47.92.37 0 .37-.83 0-1.06-.15-.1-.37-.03-.47.14m-361 .21c-.34.35-.2.7.26.7.26 0 .46-.12.46-.28 0-.38-.47-.66-.72-.42m6.2.24c-.32.4-.26.47.45.47.5 0 .77-.14.7-.36-.19-.57-.72-.62-1.14-.11m25.56 2.17c0 .26.16.42.36.36.57-.2.66-.85.12-.85a.48.48 0 0 0-.48.49m-1.22 7.12c0 .34.14.61.3.61.18 0 .31-.27.31-.6 0-.34-.13-.61-.3-.61-.17 0-.3.27-.3.6m18.3 3.7c-2.06.77-6.23 3.27-8.97 5.39-.84.64-7.81 7.6-8.44 8.43-1.14 1.5-2.42 3.47-2.42 3.75 0 .16-.1.34-.23.4-.12.05-.55.79-.94 1.62-.4.84-.84 1.76-1 2.05-.14.3-.26.87-.26 1.28 0 .4-.14.83-.3.93-.53.33-.39 4.1.16 4.31.59.23 1.07-.37 2.47-3.09a61.02 61.02 0 0 1 8.16-11.86l2.6-3c1.09-1.27 5.63-4.77 6.18-4.77.98 0 4.36-4.69 3.9-5.4-.12-.2-.46-.2-.92-.04m299.58.01c.19.57.84.66.84.13a.48.48 0 0 0-.48-.49c-.26 0-.42.17-.36.36m-322.44 3.75c0 .25.13.46.3.46.17 0 .3-.2.3-.46 0-.25-.13-.45-.3-.45-.17 0-.3.2-.3.45m-5.44 4.1c.13.39.55.46.59.1.01-.13-.14-.28-.34-.35-.2-.06-.31.05-.25.25m-2.42 1.86c.06.18.24.33.4.33.16 0 .34-.15.4-.33.06-.18-.12-.33-.4-.33s-.46.15-.4.33m325.06 2.26c0 .25.13.46.3.46.17 0 .3-.2.3-.46s-.13-.45-.3-.45c-.17 0-.3.2-.3.45m-336.6 7.32c-1.56 1.6-1.94 2.27-1.29 2.27.39 0 3.64-3.29 3.64-3.68 0-.64-.86-.13-2.36 1.41m225.2-.33c-2.42.9-1.79 1.2 3.5 1.68 6.7.6 10.21 1.52 15.3 4 3.22 1.57 3.95 1.81 5.18 1.73 3.49-.22.87-2.84-5.57-5.56a30.3 30.3 0 0 1-1.75-.8 3.26 3.26 0 0 0-1.27-.28c-.41 0-.83-.12-.92-.27-.47-.76-12.63-1.18-14.47-.5m93.28 2.31c-.74 1.2 2.55 4.74 4.18 4.5 1.22-.18.94-.91-1.1-2.87-1.98-1.9-2.68-2.27-3.08-1.63m13.26.44c0 .25.13.46.3.46.17 0 .3-.2.3-.46s-.13-.45-.3-.45c-.17 0-.3.2-.3.45m-324.76 5.2c-4.34 4.52-3.75 7.04.72 3.1 2.13-1.88 2.89-3.9 1.8-4.81-.42-.34-.77-.1-2.52 1.72m327.8 2.4c0 .25.14.46.3.46.17 0 .3-.2.3-.46s-.13-.45-.3-.45c-.16 0-.3.2-.3.45m-80.77 4.62c-.38.38-.2.66 2.27 3.34a86.8 86.8 0 0 1 4.56 5.5c3.1 4.13 5.37 5.43 6.47 3.69.28-.45-.63-2.93-1.32-3.6a6.56 6.56 0 0 1-.6-.99c-.23-.46-.54-.84-.68-.84s-.25-.2-.25-.44c0-.57-4.47-5.08-5.48-5.53-1.86-.83-2.36-1-3.53-1.15-.68-.1-1.34-.08-1.44.02m68.12.18c-.41 1.08 5.31 12.15 6.4 12.36 2.94.56 2.06-4.28-1.9-10.37-1.2-1.82-4.07-3.1-4.5-2M21.61 241.72c0 .33.2.6.46.6s.46-.27.46-.6c0-.34-.2-.61-.46-.61s-.46.27-.46.6m.61 5.48c0 .17.2.3.46.3s.46-.13.46-.3c0-.16-.21-.3-.46-.3s-.46.14-.46.3m346.2 14.47c-1.12 1.22-1.18 1.36-.54 1.36.25 0 .46-.13.46-.29 0-.16.34-.63.76-1.05.42-.42.76-.83.76-.93 0-.41-.54-.07-1.45.91m-335.53.45c0 .17.2.3.45.3s.46-.13.46-.3c0-.17-.2-.3-.46-.3s-.45.13-.45.3m33.66.22c-.36.37-.16.7.43.7.34 0 .61-.13.61-.28 0-.34-.8-.66-1.04-.42m-3.53 1c0 .17.2.3.46.3s.46-.13.46-.3c0-.17-.2-.3-.46-.3s-.46.13-.46.3m-6.5.82c-.34.34-.2.7.26.7.25 0 .46-.13.46-.29 0-.38-.48-.65-.72-.41m-14.3.6c-.35.35-.21.7.26.7.25 0 .45-.12.45-.28 0-.38-.47-.66-.72-.41m9.46-.02c-.4.4-.21.72.42.72.35 0 .58-.16.51-.36-.14-.45-.65-.64-.93-.36m272.74.62c-.35.35-.22.7.26.7.25 0 .45-.2.45-.45 0-.47-.36-.6-.7-.25m39.37.23c0 .26.21.48.48.48s.42-.16.36-.36c-.19-.57-.84-.66-.84-.12M69.7 267.43a.46.46 0 1 0 .92 0 .46.46 0 0 0-.92 0m258.75 0c0 .25.14.45.3.45.18 0 .31-.2.31-.45s-.13-.46-.3-.46c-.17 0-.3.2-.3.46m-24.06.15c0 .17.2.3.46.3.25 0 .46-.13.46-.3 0-.17-.2-.3-.46-.3-.25 0-.46.13-.46.3m25.27.46c0 .25.14.45.3.45.17 0 .3-.2.3-.45s-.13-.46-.3-.46c-.16 0-.3.2-.3.46m1.22.6c0 .26.14.46.3.46.17 0 .3-.2.3-.45s-.13-.46-.3-.46c-.16 0-.3.2-.3.46m2.94.96c-.35.35-.22.71.25.71.26 0 .46-.2.46-.46 0-.47-.36-.6-.7-.25m19.88.84c0 .26.22.48.48.48s.43-.16.36-.36c-.19-.57-.84-.66-.84-.12m-2.44.6c0 .27.22.49.49.49s.42-.16.36-.36c-.2-.57-.85-.66-.85-.12m-277.27.46c.13.4.55.47.58.1.02-.12-.14-.27-.34-.34s-.3.04-.24.24m268.75.1c0 .26.66.37 2.28.37 1.63 0 2.29-.1 2.29-.38 0-.27-.66-.38-2.29-.38-1.62 0-2.28.11-2.28.38m-46.09.71c-.11.3-.04.44.18.37.46-.16.7-.85.3-.85-.16 0-.37.22-.48.48m-219.66 1.04c0 .17.2.3.45.3.26 0 .46-.13.46-.3 0-.16-.2-.3-.46-.3-.25 0-.45.14-.45.3m7 2.44c0 .17.2.3.46.3s.45-.13.45-.3c0-.17-.2-.3-.45-.3s-.46.13-.46.3m3.65.6c0 .18.28.31.61.31.34 0 .6-.13.6-.3 0-.17-.26-.3-.6-.3-.33 0-.6.13-.6.3m7 1.82c0 .17.2.3.45.3s.46-.13.46-.3c0-.16-.2-.3-.46-.3-.25 0-.46.14-.46.3m137.5 2.64c-.35.35-.22.71.25.71.25 0 .46-.2.46-.45 0-.48-.36-.6-.71-.26m27.56.77c-.38.38-.5 1.16-.2 1.16s1.05-.85 1.05-1.2c0-.43-.4-.4-.85.04m-36.06 1.7c-.83.51-1.14 1.29-.51 1.29.43 0 1.2-.78 1.2-1.22 0-.19.13-.26.3-.15.17.1.3.04.3-.14 0-.44-.31-.39-1.3.22m-125.33.19c0 .23.22.51.5.62.63.24.78.09.54-.54-.24-.61-1.04-.67-1.04-.08m50.22.64c0 .25.21.46.46.46s.46-.2.46-.46a.46.46 0 0 0-.46-.46c-.25 0-.46.2-.46.46m89.5 0c0 .28.15.46.33.4.18-.06.33-.24.33-.4 0-.16-.15-.34-.33-.4-.18-.06-.33.12-.33.4m18.88 0c0 .25.13.46.3.46.17 0 .3-.2.3-.46 0-.25-.13-.46-.3-.46-.17 0-.3.2-.3.46m-2.44 1.07c0 .16.2.3.46.3s.45-.14.45-.3c0-.17-.2-.3-.45-.3s-.46.13-.46.3m-1.83.6c0 .17.2.3.46.3s.46-.13.46-.3c0-.16-.2-.3-.46-.3s-.46.14-.46.3m-98.32 4.13a6.1 6.1 0 0 0 1.66 1.66c.46 0 .08-.9-.44-1.07-.34-.1-.61-.32-.61-.47a.3.3 0 0 0-.3-.29c-.17 0-.31.08-.31.17m59.25.96c-.34.34-.21.7.26.7.25 0 .46-.13.46-.29 0-.38-.48-.66-.72-.41m-104.61.4c0 .16.2.3.46.3s.45-.14.45-.3c0-.17-.2-.31-.45-.31s-.46.14-.46.3m18.27.44c0 .26.21.48.48.48.54 0 .44-.66-.12-.85-.2-.06-.36.1-.36.37m-16.44.17c0 .17.2.3.45.3s.46-.13.46-.3c0-.16-.2-.3-.46-.3s-.45.14-.45.3m2.58.32c-.3.47.1.77.5.38.21-.22.22-.39 0-.51-.16-.11-.4-.05-.5.13m43.69.3c0 .16.2.3.45.3s.46-.14.46-.3c0-.18-.2-.31-.46-.31s-.45.13-.45.3m2.64.81c-.35.35-.23.71.25.71.25 0 .46-.2.46-.45 0-.48-.36-.6-.71-.26m5.88 1.48c0 .33.36.45 1.37.45 1.02 0 1.37-.12 1.37-.45s-.35-.46-1.37-.46c-1.01 0-1.37.12-1.37.46m35.31 1.8c0 .26.22.48.49.48.53 0 .44-.66-.12-.84-.2-.07-.37.1-.37.36" fill="#f9f9f9"/>
    <path d="M332.52 7.3c-5.68 1.2-6.2 4.99-1.73 12.37 5.15 8.5 7.42 14.88 7.41 20.91 0 5.57-.73 6-7.27 4.36a54.95 54.95 0 0 0-10.08-1.58c-8.27-.7-8.6-.78-10.8-2.86-4.86-4.6-7.46-4.72-19.15-.9-4.31 1.41-4.9 1.26-5.4-1.42-2.73-14.62-9.01-16.6-18.28-5.76-9.31 10.89-26.28 20.34-29.78 16.59-2.5-2.67-1.02-15.6 2.9-25.57 3.6-9.1-.97-13.8-9.75-10.03a41.92 41.92 0 0 0-12.38 7.72c-11.06 9.71-17.04 22.31-18.67 39.3-.38 3.89-.13 3.65-7.9 7.43-16.62 8.1-27.44 19.13-30.62 31.23-1.43 5.46-2.46 7.92-4 9.59-6.33 6.84-8.37 9.53-11.23 14.8-2.56 4.73-2.45 4.66-6.33 4.05-3.53-.55-16.07-.56-19.52-.02-10.98 1.73-19.93 5.47-29.68 12.42-5.43 3.86-5.13 3.87-7.05-.16-8.47-17.82-27.14-24.62-44.4-16.18-11.92 5.83-18.57 15.84-20.1 30.3-.48 4.55-1.21 5.69-5.08 7.85-10.19 5.7-2.79 14.48 14.8 17.55 15.86 2.77 30.47-5.8 38.54-22.6 3.33-6.92 4.26-7.83 6.96-6.75 3.22 1.3 3.24 2.36.15 7.08-6.38 9.71-12.27 26.29-12.28 34.55 0 2.97-.71 3.75-9.14 10.09-23.28 17.52-32.59 32.63-28.78 46.72 3.55 13.12 17.95 18.38 38.42 14.02 6.68-1.42 6.8-1.4 7.87 1.85 2.02 6.08 8.01 9.63 17.96 10.64 5.57.57 5.77.6 6.7 1.17.52.32 1.62 1.73 2.56 3.27 8.2 13.47 23.86 16.23 39.6 6.96a47.32 47.32 0 0 1 5.17-2.73c1.8-.63 7.87-.72 8.24-.12.14.22.35.31.46.2.44-.44 1.35.46 2.32 2.28 4.08 7.75 12.5 9.63 25.28 5.66 6.29-1.95 6.3-1.95 8.68.51 2.99 3.07 4.44 3.65 9.06 3.63 7.68-.04 17.8-4.73 25.34-11.73 7.36-6.84 7.04-6.7 10.66-4.5 14.3 8.7 24.8 7.35 30.67-3.95 1.21-2.33 1.68-2.46 4.92-1.33 4.66 1.61 5.43 1.74 10.6 1.74 7.8-.01 14.25-2.09 21.32-6.86 4.53-3.05 3.92-2.87 9.87-2.95 5.15-.07 7.8-.32 10.66-1.01 3.8-.92 5.05-.78 8.68.93 7 3.3 9.94 4.04 16.29 4.06 10.11.02 19.4-4.44 25.15-12.09 5.78-7.7 6.54-16.62 2.24-26.53-1.12-2.58-1.75-4.71-2.86-9.66-.44-1.97-1.1-3.48-3.17-7.31-1.23-2.29-1.1-2.59 2.49-6.3 4.9-5.05 6.22-7.5 8.43-15.6 1.17-4.28.89-4.14 9.53-4.51.88-.04 2.01-1.34 1.81-2.09-.12-.48-.02-.64.4-.65.42 0 .46-.07.18-.25-.3-.18-.31-.46-.09-1.05.84-2.2.97-10.77.23-14.52-1.2-6.09-2-8.9-3.83-13.48-1.8-4.5-4.1-8.63-6.85-12.22-2.19-2.88-3.65-6.78-4.33-11.61-.22-1.56.66-2.52 3.72-4.1 9.05-4.63 13.73-11 15.2-20.7 1.79-11.68-1.47-15.71-15.99-19.77l-2.13-.62a88.2 88.2 0 0 0-2.13-.6c-5.45-1.48-5.73-2.05-3.4-7.01 10.94-23.25 3.75-51.43-16.7-65.35-7.19-4.9-15.9-7.78-20.6-6.8m10.51 10.06c6.53 3.15 15.3 11.57 18.75 17.99 7.32 13.6 5.85 35.22-3.04 44.62-1.6 1.7-1.64 1.72-2.25 1.17-.99-.9-.76-1.58.83-2.5 8.03-4.6 4.6-14.4-8.8-25.16-1.62-1.3-3.02-2.57-3.12-2.83-1.1-2.84 2.75-3.37 9.7-1.33 2.83.82 3.35.89 3.8.45 1.32-1.32-5.65-4.41-9.95-4.41-2.13 0-2.52-.55-2.52-3.63 0-3.82.38-4.25 3.47-4.05 2.94.19 3.54 0 2.74-.88-.83-.92-2.5-1.7-4.17-1.95-1.75-.26-2.22-.68-2.67-2.37-1.2-4.5-4.96-13.73-5.9-14.51-1.8-1.5.42-1.92 3.13-.6m-111.8 5.57c.1.23-.3 1.56-.89 2.97-1.64 4-2.63 9.07-2.63 13.56 0 2.15-.18 2.43-2.44 3.76-2.58 1.52-2.75 3.02-.27 2.45 2.79-.64 3.27-.31 4.09 2.84.78 3.02.68 3.19-2.65 4.57-6.79 2.81-7.54 4.95-.92 2.62 4.97-1.76 5.45-1.64 7.45 1.82a66.55 66.55 0 0 0 6.37 8.92c5.6 6.74 7.34 10.48 8.16 17.63.83 7.23-.97 9.47-4.79 5.98-1.44-1.32-1.6-1.34-4.3-.7-1.05.24-2.05.37-2.2.27-.38-.23-.35-1.27.05-1.51.44-.28-.43-1.2-1.56-1.67-1.65-.69-4.55 1.56-4.55 3.54 0 .4-.27.85-.61 1.03-1.74.93-.56 2.13 2.1 2.13 3.3 0 3.5 1.03.75 3.97-1.87 2-3.3 1.87-4.7-.42-.68-1.12-2.56-2.3-5.98-3.73-4-1.67-9.66-11.21-11.99-20.21-3.89-15.05.47-31.98 11.1-43.13 4.48-4.7 9.86-8.16 10.42-6.69M277 36.3c1.48 4.09-.03 13.02-3.22 19.06-1.23 2.34-1.6 3.4-1.18 3.4.39 0 3.4-1.69 8.52-4.74 17.06-10.21 22.3-11.26 18.52-3.73-1.45 2.91-1.09 3.31 2.18 2.37 16.49-4.76 34.52-.5 45.66 10.78 5.73 5.8 5.63 6.27-1.35 6.27-5.6 0-11 .48-11.77 1.05-.56.4-.61.35 3.68 4A42.86 42.86 0 0 1 345.7 83c8.41 11.74 10.26 27.88 3.51 30.71-1.14.49-5.1.59-6.19.16-.38-.15-1.31-.45-2.07-.67-3.42-1.02-9.41-4.75-12.17-7.58a37.39 37.39 0 0 0-3.86-3c-1.06-.55-1.74.33-1.49 1.92l.52 3.21c.49 3.02.67 12.98.26 14.61-.77 3.08-1.05 3.85-1.74 4.8-1.11 1.51-2.26 1.98-4.46 1.8-2.55-.22-4.12-.52-4.32-.84-.1-.15-.38-.28-.65-.28-.71 0-5.88-2.5-8.55-4.15-8.52-5.24-17.24-13.78-20.16-19.74-.25-.5-.52-.98-.6-1.07-.09-.08-.54-.95-1-1.92-.62-1.29-.99-1.74-1.37-1.67-.65.12-.77 8.69-.16 11.5 1.65 7.68.98 9.12-3.41 7.32-.34-.14-1.1-.42-1.68-.62a53.17 53.17 0 0 1-4.26-1.76c-9.54-4.29-14.38-13.1-15.22-27.76-.5-8.73-1.41-12.98-3.76-17.5-1.08-2.1-5.18-6.49-6.65-7.14-3.33-1.47-5.16-5.8-2.45-5.8.21 0 .63-.13.92-.27.7-.36 1.82-.81 3.11-1.26 2.64-.91 5.6-2.37 9.3-4.59 6.15-3.68 11.52-8.08 14.98-12.3 3.48-4.22 4.27-4.68 4.94-2.82M200.3 74.11c.2.25.43 1.04.51 1.75.09.72.23 1.51.33 1.77.1.25.22.73.28 1.06.06.34.23.88.38 1.22.15.33.58 1.43.96 2.43 1.45 3.84 5.04 10 8.55 14.68 1.32 1.77 1.17 1.93-4.3 4.26a94 94 0 0 1-3.2 1.31c-.34.12-1.23.5-1.98.84-.76.34-1.92.85-2.6 1.13-10.3 4.37-13.25 7.1-14.15 13.08-1.78 11.91 7.3 25.04 20.17 29.2.84.27.63 1.3-.66 3.2a49.73 49.73 0 0 0-4.61 8.4c-3.17 7.44-1.46 15.03 3.75 16.58.7.21 1.6.5 2 .66.38.15 1.5.27 2.47.27 3 0 3.17.28 3.43 5.68.3 6.5.64 8.12 2.4 11.8.83 1.7 3.24 4.53 3.66 4.27.15-.1.27-.03.27.15s.38.33.84.33c.57 0 .7.08.43.26-.33.2-.31.3.08.44.26.1.48.09.48-.04 0-.4 8.31-.04 8.99.39.46.3.72 1 1.03 2.79 1.8 10.35 6.23 15.35 13.84 15.59 4.26.13 6.12-.31 11.2-2.66 1.12-.52 2.1-.95 2.2-.95.08 0 1.02-.4 2.07-.9 8.46-4 19.57-2.12 28.17 4.78 2.1 1.68 1.4 2.5-2.51 2.96-7.7.9-16.58 6.07-22.06 12.8-8.56 10.53-11.35 21.18-9.32 35.61.84 5.98-.02 7.77-3.75 7.77-8.13 0-19.67-8.26-28.06-20.07a80 80 0 0 1-3.17-5.92c-1.34-2.68-2.6-4.93-2.82-5-.87-.26-.4 7.38.74 11.96 1.57 6.28 1.4 6.7-1.97 5-3.74-1.88-7.87-6.42-10.1-11.09-1.66-3.48-2.6-6.64-3.45-11.56-.34-2.02-.43-11.53-.17-18.42.34-8.8-6.2-5.63-8.18 3.96-.19.92-.5 2.4-.67 3.3-.46 2.3-.4 9.77.12 12.9 2.64 16.07 11.64 27.56 24 30.66 3.98 1 4.06 1.26 1.22 4.01-6.7 6.48-16.98 11.85-21.1 11.03-2.1-.42-2.66-1.87-3.03-7.87-.42-6.7-.36-6.7-8.24-1.1-15.33 10.87-26.5 8.03-23.16-5.9 1.2-5.05.73-5.66-2.75-3.55-18.85 11.45-31.92 5.92-27.33-11.56 1.07-4.09 1.09-4.33.28-4.07-.66.2-3.92 2.13-5.93 3.5a68.15 68.15 0 0 1-8.68 4.57c-.92.36-2.09.84-2.59 1.07-12.05 5.47-28.89 5.74-34.1.54-2.72-2.73-2.72-6.25 0-12.07 1.22-2.6.38-2.81-5.32-1.38-7.83 1.96-15.22-1.44-15.22-7.03 0-4.58 6-14.7 11.38-19.15.7-.59.65-1.86-.08-1.86-.31 0-2.06.34-3.88.77-12.32 2.85-15.38-.22-10.27-10.32 4.1-8.12 13.75-16.74 22.03-19.7a10.8 10.8 0 0 0 2.57-1.26c.32-.3.67-.54.77-.54.74 0 .25-2.15-.58-2.58-1.04-.54-5.3-.65-6.55-.17-2.48.95-5.06.18-4.57-1.36.1-.34.31-1.36.46-2.28.33-2.15.4-2.46 1.87-7 9.18-28.65 37.18-46.99 64.39-42.18 4.3.75 4.44.98 4.15 6.39-.14 2.66-.1 3.8.15 3.95.2.11.35.53.35.93 0 4.14 5.91 7.5 11.54 6.56 2.3-.4 2.77-.3 2.77.6 0 3.07 1 4.3 2.75 3.38l1.14-.6 1.62 1.05c2.54 1.63 3.32 1.33 3.32-1.3 0-2.18.76-6.87 1.72-10.6 1.63-6.3 1.42-7.56-1.04-6.26-.3.15-1.32.63-2.28 1.06l-3.5 1.58c-7.75 3.51-9.17 2.9-9.24-4-.1-9.56 3.83-16.95 14.07-26.48l2.63-2.44.2-2.58c.88-10.6 8.64-21.26 20.78-28.53 6.35-3.8 10.56-5.21 11.66-3.9m163.96 17.5c1.36.33 4.1 1.08 6.1 1.66 1.98.59 5.59 1.56 8 2.17 5.35 1.33 5.5 1.41 5.5 2.67-.03 2.17-4.55 5.36-9.43 6.66-7.49 1.98-7.83 1.81-10.96-5.38-.36-.84-1.13-2.48-1.7-3.65-2.33-4.8-2.07-5.22 2.5-4.12m-120.2 6.84c-1.28 2.4-2.64 3.21-5.43 3.21-4.65 0-3.92-2.19 1.1-3.36.83-.2 2.13-.53 2.88-.74 1.54-.44 2-.15 1.45.9m-19.1 8.79c8.27 4.05 20.32 3.94 24.3-.2 1.36-1.42 1.54-1.3 3.77 2.48 4.6 7.82 12.6 13.83 22.3 16.78 4.86 1.47 9.62.87 12.25-1.55 1.67-1.53 1.9-1.43 7.39 3.08 12.33 10.15 26.23 12.65 32.96 5.93a8.8 8.8 0 0 0 1.44-1.68c0-.14.17-.43.38-.65.36-.38.61-.87 1.38-2.68.44-1.03.9-3.4 1.15-5.79.34-3.37.55-3.5 3.53-2.19a35.3 35.3 0 0 0 3.3 1.26l2.25.66c7.44 2.27 18.11-2.94 18.15-8.86 0-1.93.83-2.8 1.5-1.57.47.9 2.74 9.56 4.75 18.16 1.3 5.6 1.5 6.1 2.69 6.9 2.88 1.98 3.9 3.55 3.82 5.84-.06 1.76.04 2.14 1.15 4.3l2.4 4.7c3.86 7.5 6.86 17.8 6.93 23.77.05 3.56-.74 3.96-3.38 1.72-8.45-7.16-7.83-7.36-7.88 2.42-.06 11.35-1.48 16.52-5.76 20.97-2.27 2.37-3.18 1.75-3.18-2.16 0-2.54-.95-6.01-2-7.31-.95-1.18-1.36-.72-2.28 2.63-1.75 6.38-3.61 9.37-6.64 10.69-1.6.7-2.13 1.39-4.4 5.74-4.04 7.78-11.6 16.44-14.33 16.44-.25 0-.54.14-.64.3-1.33 2.15-7.16-3.39-7.16-6.79 0-.26-.12-.55-.26-.64-.15-.1-.34-.54-.43-1-.15-.81-.83-3.57-1.45-5.9a9 9 0 0 1-.3-1.63c0-.3-.2-1.27-.47-2.17-.7-2.42-1.23-2.24-3.36 1.17-4.72 7.53-11.43 14.23-14.27 14.23-.78 0-1.15-.27-2.14-1.6-3.86-5.16-8.22-9.41-14.36-14.02-3.72-2.8-3.65-2.7-2.86-4.04 1.14-1.93.55-2.27-1.12-.66-1.11 1.08-3.47 1.37-5 .61-2.1-1.03-7.44-2.2-10.1-2.2-.37-.01-.07-2.22.73-5.26.75-2.85.59-4.19-.5-4.19-.28 0-2.72 2.25-5.41 4.99-12.55 12.76-21.59 14.66-24.76 5.21-1.2-3.57-1.37-4.96-1.2-10.2.17-5.37.41-7.14 1.69-12.33 1.97-8.05 1.89-8.02-6.06 1.85-5.62 6.98-6.46 7.67-9.13 7.48-5.27-.38-5.29-14.93-.02-25.5 2.64-5.32 2.42-5.74-1.88-3.5-9.93 5.18-10.03 5.22-12.12 5.21-3.46-.01-3.28-4.24.47-11.1 3.33-6.09 4.56-7.23 8.36-7.75 12.69-1.73 22.4-12.43 22.4-24.68 0-6.54-.77-7.36-5.22-5.53-11.86 4.9-38.53 4.03-40.96-1.32-.74-1.63-.42-1.8 9.27-5.15 7.64-2.63 12.1-4.24 13.16-4.73 1.98-.92 3.73-.67 7.17 1m159.5 2.14c0 5.05-12 15.36-13.17 11.31-.82-2.84-1.14-4.21-1.02-4.33.07-.07-.06-.6-.3-1.16-.82-1.96-.4-2.4 2.77-2.91 4.17-.66 8.3-1.96 10.5-3.3.79-.5 1.22-.35 1.22.4m-150.3 14.5c-.17 3.85-5.77 11.19-10.13 13.28-3.42 1.65-10.6 2.06-15.02.86-1.9-.51-5.16-1.94-5.33-2.33-.05-.14-.23-.25-.4-.25-.42 0-2.64-1.79-3.74-3.02-.51-.57-1.1-1.2-1.3-1.4-.41-.42-2.22-4.25-2.22-4.72 0-.36 2.04-.4 2.26-.03.1.15.61.37 1.16.49l2.21.52c4.3 1.04 11.58 1.44 15.68.87 5.81-.8 10.4-2.36 14.77-5.02 1.73-1.05 2.14-.9 2.06.76m118.48 2.61c-3.55.86-8.06 6.02-8.06 9.24 0 1.98 1.64 4.16 3.8 5.04 2.95 1.2 4.52 2.15 6.3 3.77 3.04 2.75 3.78 3.17 5.37 3.11 6.95-.26 5-16.83-2.4-20.41-1.27-.61-3.92-1-5-.75M60.72 128.9a26.06 26.06 0 0 1 13.11 8.73c2.07 2.6 2.07 2.57-.4 3.03-5.13.95-9.02 4.64-13.78 13.08-7.09 12.57-14.91 17.75-26.78 17.71-9.2-.03-13.1-2.3-10.68-6.2.52-.83.94-1.57.94-1.65 0-.09.53-.94 1.19-1.91 3.76-5.55 4.46-7.44 3.52-9.67-3.04-7.28 7.58-20.09 19.16-23.1 3.3-.85 10.49-.87 13.72-.02m293.93.18c2.13 0 3.79 3.43 2.72 5.63-2 4.13-7.02 3.89-8.2-.38-.72-2.61 2.24-6.16 4.5-5.39.22.08.66.14.98.14m-82.51 6.3c-.59.07-1.2.27-1.36.42-.16.16-.53.28-.84.28-.3 0-.54.14-.54.3 0 .18-.22.31-.49.31-.73 0-4.16 3.63-4.88 5.18-1.18 2.5-1.33 3.06-1.33 4.8 0 2.24 1.58 4.89 2.94 4.93 1.78.05 5.1 3.13 5.74 5.32.65 2.23 2.02 2.87 4.95 2.31 15.05-2.86 11-25.86-4.2-23.85m4.48 3.19c1.96 1.18 2.68 3.94 1.63 6.26-1.95 4.3-8.64 2.83-9.06-1.99-.34-3.95 3.9-6.39 7.43-4.27m68.59 17.2c-1.34.44-2.02 1.06-3.85 3.52-6.42 8.67-16.76 9.88-23.65 2.79-.79-.8-1.42-1.68-1.42-1.95 0-1.96-4.15-1.07-7.1 1.52-5.35 4.69.83 13.3 6.57 9.16l1.45-1.05 2.28 1.6c7.96 5.56 14.68 4.94 22.46-2.06l2.07-1.86 2.51.19c3.7.28 5.68-1.63 5.68-5.5 0-3.92-3.84-7.4-7-6.37m11.77 58.94c2.05 1.88 3.75 4.13 3.75 4.97 0 .8-1.16 1.31-1.88.84-.22-.14-1.84-.32-3.6-.4-2.64-.13-3.2-.25-3.28-.66-.18-.95 2.61-6.05 3.31-6.05.16 0 .92.59 1.7 1.3M47 217.33c.1.16.05 1.54-.11 3.08-.59 5.64.9 8.95 4.88 10.84.99.47 1.81 1 1.83 1.17.09.84-.11 2.17-.36 2.43-.16.16-.28.6-.28.97 0 .38-.14.77-.3.87-.17.1-.31.5-.31.87s-.12.82-.27.97c-.63.67-1.18 8.22-.7 9.54.16.44.47 1.4.7 2.14.26.88.91 1.85 1.9 2.83 1.92 1.88 1.61 2.43-1.47 2.62l-1.97.13-1.63-1.67c-1.4-1.43-2.43-2.93-4.02-5.86-.52-.95-1.94-4.6-2.1-5.38-.08-.4-.4-1.4-.72-2.23-1.29-3.43-2.33-9.06-2.69-14.61l-.16-2.44 1.62-1.67c3.82-3.96 5.7-5.36 6.16-4.6m248.27 10.22c2.78 1.42 5.76 4.96 8.27 9.8 1.88 3.64 1.65 4.02-2.53 4.2-3.48.13-6 .47-6.22.82-.1.14-.43.26-.76.26s-.83.12-1.12.27c-.3.15-.87.4-1.3.57a17.52 17.52 0 0 0-2.73 1.29c-.08.08-.77.48-1.52.88-5.77 3.08-11.6 9.4-15.2 16.47-2.04 4-2.04 4-4.21 2.98-6.01-2.82-8.4-6.17-7.42-10.38.59-2.5 1.04-4 1.3-4.3.15-.16.26-.53.26-.82 0-.28.1-.56.23-.62.12-.06.56-.79.97-1.62 4.16-8.5 13.8-17.12 21.63-19.32.76-.21 1.65-.5 1.98-.65 1.7-.73 6.83-.62 8.37.17m66.41.03c2.02 1.05 6.04 9.12 6.04 12.13 0 1.28-.5 1.44-3.27 1.04-2.82-.41-6.9-.19-7.26.4-.09.14-.5.26-.9.26-.42 0-1 .13-1.28.28-.3.15-1.08.5-1.75.79a41.56 41.56 0 0 0-17.5 14.15c-2.2 3.23-2.72 3.25-6.21.26-9.67-8.27 8.1-28.38 26.3-29.78 3.29-.25 4.64-.14 5.83.47m-43.43.51c.27.38 1.01 1.53 1.66 2.55a31.33 31.33 0 0 0 2.73 3.58c1.88 2.07 1.9 2.34.3 4.46-2.7 3.55-4.86 9.95-5 14.72-.05 1.7-.1 3.23-.12 3.42-.03.5-2.45 1.33-3.88 1.33-1.87 0-2.06-.46-1.12-2.77 2.58-6.32 2.09-13.44-1.41-20.38-1.34-2.65-1.3-2.88.83-4.11a30.5 30.5 0 0 0 3.08-2.17c1.85-1.5 2.26-1.59 2.93-.63m-284 15.55c.78 2.48 1.6 4.88 1.82 5.33 1.18 2.48 1.42 3.14 1.22 3.33-.36.36-2.55-2.37-3.54-4.43-1.65-3.43-2.43-7.4-1.78-9.07.43-1.08.3-1.35 2.27 4.84m330.73 6.43c.77.92-1.77 4.2-4.48 5.8-.54.33-.99.7-.99.83s-.14.24-.32.24-.9.38-1.6.85c-3.27 2.21-11.5 4.84-13.15 4.2-1.99-.75 4.76-7.3 10.38-10.04a541 541 0 0 0 2.94-1.45c.29-.14.84-.26 1.22-.27.37 0 .9-.13 1.14-.3.74-.48 4.43-.37 4.86.14m-60.8 1.19c1.8 2.82-10.46 13.33-17.88 15.33-6.76 1.82-7.9 1.2-5.27-2.81 1.53-2.33 8.48-8.67 9.51-8.67.06 0 .98-.52 2.05-1.16a25.98 25.98 0 0 1 3-1.57c.58-.23 1.2-.53 1.35-.67.16-.14.58-.25.93-.25.35 0 .77-.13.93-.29.67-.66 4.95-.6 5.38.09m-182.1 21.43 1.28 2.74c.18.37 1.27 1.7 2.41 2.94 2.22 2.4 2.65 3.53 1.35 3.53-.77 0-2.88-1.02-3.76-1.82a83.56 83.56 0 0 0-3.65-2.7c-5.37-3.85-5.5-4.63-.99-6.22 2.21-.77 2.31-.73 3.36 1.53m-13.47 5.66c1.64 1.74 1.82 2.03 1.26 2.03-.5 0-3.93-3.38-3.93-3.87 0-.66.87-.06 2.67 1.84" fill="#2d0455"/>
  </g>
</svg>
